<svg width="20" height="21" viewBox="0 0 20 21" fill="none" xmlns="http://www.w3.org/2000/svg">
<path d="M10 5H8C7.71667 5 7.47917 4.90417 7.2875 4.7125C7.09583 4.52083 7 4.28333 7 4C7 3.71667 7.09583 3.47917 7.2875 3.2875C7.47917 3.09583 7.71667 3 8 3H10V1C10 0.716667 10.0958 0.479167 10.2875 0.2875C10.4792 0.0958333 10.7167 0 11 0C11.2833 0 11.5208 0.0958333 11.7125 0.2875C11.9042 0.479167 12 0.716667 12 1V3H14C14.2833 3 14.5208 3.09583 14.7125 3.2875C14.9042 3.47917 15 3.71667 15 4C15 4.28333 14.9042 4.52083 14.7125 4.7125C14.5208 4.90417 14.2833 5 14 5H12V7C12 7.28333 11.9042 7.52083 11.7125 7.7125C11.5208 7.90417 11.2833 8 11 8C10.7167 8 10.4792 7.90417 10.2875 7.7125C10.0958 7.52083 10 7.28333 10 7V5ZM6 21C5.45 21 4.97917 20.8042 4.5875 20.4125C4.19583 20.0208 4 19.55 4 19C4 18.45 4.19583 17.9792 4.5875 17.5875C4.97917 17.1958 5.45 17 6 17C6.55 17 7.02083 17.1958 7.4125 17.5875C7.80417 17.9792 8 18.45 8 19C8 19.55 7.80417 20.0208 7.4125 20.4125C7.02083 20.8042 6.55 21 6 21ZM16 21C15.45 21 14.9792 20.8042 14.5875 20.4125C14.1958 20.0208 14 19.55 14 19C14 18.45 14.1958 17.9792 14.5875 17.5875C14.9792 17.1958 15.45 17 16 17C16.55 17 17.0208 17.1958 17.4125 17.5875C17.8042 17.9792 18 18.45 18 19C18 19.55 17.8042 20.0208 17.4125 20.4125C17.0208 20.8042 16.55 21 16 21ZM2 3H1C0.716667 3 0.479167 2.90417 0.2875 2.7125C0.0958333 2.52083 0 2.28333 0 2C0 1.71667 0.0958333 1.47917 0.2875 1.2875C0.479167 1.09583 0.716667 1 1 1H2.65C2.83333 1 3.00833 1.05 3.175 1.15C3.34167 1.25 3.46667 1.39167 3.55 1.575L7.525 10H14.525L18.15 3.5C18.2333 3.33333 18.35 3.20833 18.5 3.125C18.65 3.04167 18.8167 3 19 3C19.3833 3 19.6708 3.1625 19.8625 3.4875C20.0542 3.8125 20.0583 4.14167 19.875 4.475L16.3 10.95C16.1167 11.2833 15.8708 11.5417 15.5625 11.725C15.2542 11.9083 14.9167 12 14.55 12H7.1L6 14H17C17.2833 14 17.5208 14.0958 17.7125 14.2875C17.9042 14.4792 18 14.7167 18 15C18 15.2833 17.9042 15.5208 17.7125 15.7125C17.5208 15.9042 17.2833 16 17 16H6C5.25 16 4.67917 15.675 4.2875 15.025C3.89583 14.375 3.88333 13.7167 4.25 13.05L5.6 10.6L2 3Z" fill="black"/>
</svg>
