<svg width="19" height="21" viewBox="0 0 19 21" fill="none" xmlns="http://www.w3.org/2000/svg">
<path d="M2.5 21C1.95 21 1.47917 20.8042 1.0875 20.4125C0.695833 20.0208 0.5 19.55 0.5 19V7C0.5 6.45 0.695833 5.97917 1.0875 5.5875C1.47917 5.19583 1.95 5 2.5 5H4.5C4.5 3.61667 4.9875 2.4375 5.9625 1.4625C6.9375 0.4875 8.11667 0 9.5 0C10.8833 0 12.0625 0.4875 13.0375 1.4625C14.0125 2.4375 14.5 3.61667 14.5 5H16.5C17.05 5 17.5208 5.19583 17.9125 5.5875C18.3042 5.97917 18.5 6.45 18.5 7V19C18.5 19.55 18.3042 20.0208 17.9125 20.4125C17.5208 20.8042 17.05 21 16.5 21H2.5ZM2.5 19H16.5V7H2.5V19ZM6.5 5H12.5C12.5 4.16667 12.2083 3.45833 11.625 2.875C11.0417 2.29167 10.3333 2 9.5 2C8.66667 2 7.95833 2.29167 7.375 2.875C6.79167 3.45833 6.5 4.16667 6.5 5ZM9.475 13C10.7083 13 11.825 12.5917 12.825 11.775C13.825 10.9583 14.3167 10.0417 14.3 9.025C14.3 8.74167 14.2083 8.5 14.025 8.3C13.8417 8.1 13.6083 8 13.325 8C13.0917 8 12.8833 8.075 12.7 8.225C12.5167 8.375 12.3833 8.6 12.3 8.9C12.1167 9.53333 11.7583 10.0417 11.225 10.425C10.6917 10.8083 10.1083 11 9.475 11C8.84167 11 8.25417 10.8083 7.7125 10.425C7.17083 10.0417 6.81667 9.53333 6.65 8.9C6.56667 8.58333 6.44167 8.35417 6.275 8.2125C6.10833 8.07083 5.90833 8 5.675 8C5.39167 8 5.15417 8.1 4.9625 8.3C4.77083 8.5 4.675 8.74167 4.675 9.025C4.675 10.0417 5.16667 10.9583 6.15 11.775C7.13333 12.5917 8.24167 13 9.475 13Z" fill="white"/>
</svg>
