<svg width="19" height="19" viewBox="0 0 19 19" fill="none" xmlns="http://www.w3.org/2000/svg">
<path d="M13.5 7.25C13.7833 7.25 14.0208 7.15417 14.2125 6.9625C14.4042 6.77083 14.5 6.53333 14.5 6.25C14.5 5.96667 14.4042 5.72917 14.2125 5.5375C14.0208 5.34583 13.7833 5.25 13.5 5.25H10.5C10.2167 5.25 9.97917 5.34583 9.7875 5.5375C9.59583 5.72917 9.5 5.96667 9.5 6.25C9.5 6.53333 9.59583 6.77083 9.7875 6.9625C9.97917 7.15417 10.2167 7.25 10.5 7.25H13.5ZM13.5 13.25C13.7833 13.25 14.0208 13.1542 14.2125 12.9625C14.4042 12.7708 14.5 12.5333 14.5 12.25C14.5 11.9667 14.4042 11.7292 14.2125 11.5375C14.0208 11.3458 13.7833 11.25 13.5 11.25H10.5C10.2167 11.25 9.97917 11.3458 9.7875 11.5375C9.59583 11.7292 9.5 11.9667 9.5 12.25C9.5 12.5333 9.59583 12.7708 9.7875 12.9625C9.97917 13.1542 10.2167 13.25 10.5 13.25H13.5ZM6.5 8.25C7.05 8.25 7.52083 8.05417 7.9125 7.6625C8.30417 7.27083 8.5 6.8 8.5 6.25C8.5 5.7 8.30417 5.22917 7.9125 4.8375C7.52083 4.44583 7.05 4.25 6.5 4.25C5.95 4.25 5.47917 4.44583 5.0875 4.8375C4.69583 5.22917 4.5 5.7 4.5 6.25C4.5 6.8 4.69583 7.27083 5.0875 7.6625C5.47917 8.05417 5.95 8.25 6.5 8.25ZM6.5 14.25C7.05 14.25 7.52083 14.0542 7.9125 13.6625C8.30417 13.2708 8.5 12.8 8.5 12.25C8.5 11.7 8.30417 11.2292 7.9125 10.8375C7.52083 10.4458 7.05 10.25 6.5 10.25C5.95 10.25 5.47917 10.4458 5.0875 10.8375C4.69583 11.2292 4.5 11.7 4.5 12.25C4.5 12.8 4.69583 13.2708 5.0875 13.6625C5.47917 14.0542 5.95 14.25 6.5 14.25ZM2.5 18.25C1.95 18.25 1.47917 18.0542 1.0875 17.6625C0.695833 17.2708 0.5 16.8 0.5 16.25V2.25C0.5 1.7 0.695833 1.22917 1.0875 0.8375C1.47917 0.445833 1.95 0.25 2.5 0.25H16.5C17.05 0.25 17.5208 0.445833 17.9125 0.8375C18.3042 1.22917 18.5 1.7 18.5 2.25V16.25C18.5 16.8 18.3042 17.2708 17.9125 17.6625C17.5208 18.0542 17.05 18.25 16.5 18.25H2.5ZM2.5 16.25H16.5V2.25H2.5V16.25Z" fill="#1C1B1F"/>
</svg>
