<svg width="17" height="12" viewBox="0 0 17 12" fill="none" xmlns="http://www.w3.org/2000/svg">
<path d="M6.04999 8.9L14.525 0.425C14.725 0.225 14.9583 0.125 15.225 0.125C15.4917 0.125 15.725 0.225 15.925 0.425C16.125 0.625 16.225 0.8625 16.225 1.1375C16.225 1.4125 16.125 1.65 15.925 1.85L6.74999 11.05C6.54999 11.25 6.31666 11.35 6.04999 11.35C5.78333 11.35 5.54999 11.25 5.34999 11.05L1.04999 6.75C0.849993 6.55 0.75416 6.3125 0.762493 6.0375C0.770827 5.7625 0.874993 5.525 1.07499 5.325C1.27499 5.125 1.51249 5.025 1.78749 5.025C2.06249 5.025 2.29999 5.125 2.49999 5.325L6.04999 8.9Z" fill="#1C1B1F"/>
</svg>
