<svg width="12" height="7" viewBox="0 0 12 7" fill="none" xmlns="http://www.w3.org/2000/svg">
<path d="M6.275 4.47499L10.175 0.574988C10.3583 0.391654 10.5917 0.299988 10.875 0.299988C11.1583 0.299988 11.3917 0.391654 11.575 0.574988C11.7583 0.758321 11.85 0.991655 11.85 1.27499C11.85 1.55832 11.7583 1.79165 11.575 1.97499L6.975 6.57499C6.875 6.67499 6.76666 6.74582 6.65 6.78749C6.53333 6.82915 6.40833 6.84999 6.275 6.84999C6.14166 6.84999 6.01666 6.82915 5.9 6.78749C5.78333 6.74582 5.675 6.67499 5.575 6.57499L0.974998 1.97499C0.791665 1.79165 0.699998 1.55832 0.699998 1.27499C0.699998 0.991654 0.791665 0.758321 0.974998 0.574987C1.15833 0.391654 1.39166 0.299987 1.675 0.299987C1.95833 0.299987 2.19166 0.391654 2.375 0.574987L6.275 4.47499Z" fill="#1C1B1F"/>
</svg>
