<svg width="7" height="12" viewBox="0 0 7 12" fill="none" xmlns="http://www.w3.org/2000/svg">
<path d="M2.825 6.425L6.725 10.325C6.90833 10.5083 7 10.7417 7 11.025C7 11.3083 6.90833 11.5417 6.725 11.725C6.54167 11.9083 6.30833 12 6.025 12C5.74167 12 5.50833 11.9083 5.325 11.725L0.725 7.125C0.625 7.025 0.554167 6.91667 0.5125 6.8C0.470834 6.68333 0.45 6.55833 0.45 6.425C0.45 6.29167 0.470834 6.16667 0.5125 6.05C0.554167 5.93333 0.625001 5.825 0.725 5.725L5.325 1.125C5.50833 0.941666 5.74167 0.849999 6.025 0.849999C6.30833 0.849999 6.54167 0.941667 6.725 1.125C6.90833 1.30833 7 1.54167 7 1.825C7 2.10833 6.90833 2.34167 6.725 2.525L2.825 6.425Z" fill="#1C1B1F"/>
</svg>
