<svg width="12" height="7" viewBox="0 0 12 7" fill="none" xmlns="http://www.w3.org/2000/svg">
<path d="M6.275 2.67498L2.375 6.57498C2.19167 6.75831 1.95834 6.84998 1.675 6.84998C1.39167 6.84998 1.15834 6.75831 0.975005 6.57498C0.791671 6.39164 0.700005 6.15831 0.700005 5.87498C0.700005 5.59164 0.791671 5.35831 0.975005 5.17498L5.575 0.574976C5.675 0.474976 5.78334 0.404142 5.9 0.362475C6.01667 0.320809 6.14167 0.299975 6.275 0.299975C6.40834 0.299975 6.53334 0.320809 6.65 0.362475C6.76667 0.404142 6.875 0.474976 6.975 0.574976L11.575 5.17498C11.7583 5.35831 11.85 5.59164 11.85 5.87498C11.85 6.15831 11.7583 6.39164 11.575 6.57498C11.3917 6.75831 11.1583 6.84998 10.875 6.84998C10.5917 6.84998 10.3583 6.75831 10.175 6.57498L6.275 2.67498Z" fill="#1C1B1F"/>
</svg>
