<svg width="11" height="10" viewBox="0 0 11 10" fill="none" xmlns="http://www.w3.org/2000/svg">
<path d="M5.49999 6.40001L2.59999 9.30001C2.41665 9.48335 2.18332 9.57501 1.89999 9.57501C1.61665 9.57501 1.38332 9.48335 1.19999 9.30001C1.01665 9.11668 0.924988 8.88335 0.924988 8.60001C0.924988 8.31668 1.01665 8.08335 1.19999 7.90001L4.09999 5.00001L1.19999 2.12501C1.01665 1.94168 0.924988 1.70835 0.924988 1.42501C0.924988 1.14168 1.01665 0.908346 1.19999 0.725012C1.38332 0.541679 1.61665 0.450012 1.89999 0.450012C2.18332 0.450012 2.41665 0.541679 2.59999 0.725012L5.49999 3.62501L8.37499 0.725012C8.55832 0.541679 8.79166 0.450012 9.07499 0.450012C9.35832 0.450012 9.59165 0.541679 9.77499 0.725012C9.97499 0.925012 10.075 1.16251 10.075 1.43751C10.075 1.71251 9.97499 1.94168 9.77499 2.12501L6.87499 5.00001L9.77499 7.90001C9.95832 8.08335 10.05 8.31668 10.05 8.60001C10.05 8.88335 9.95832 9.11668 9.77499 9.30001C9.57499 9.50001 9.33749 9.60001 9.06249 9.60001C8.78749 9.60001 8.55832 9.50001 8.37499 9.30001L5.49999 6.40001Z" fill="#1C1B1F"/>
</svg>
