<svg width="24" height="24" viewBox="0 0 24 24" fill="none" xmlns="http://www.w3.org/2000/svg">
<path d="M11.5 13.4L6.59999 18.3C6.41665 18.4833 6.18332 18.575 5.89999 18.575C5.61665 18.575 5.38332 18.4833 5.19999 18.3C5.01665 18.1167 4.92499 17.8833 4.92499 17.6C4.92499 17.3167 5.01665 17.0833 5.19999 16.9L10.1 12L5.19999 7.09999C5.01665 6.91665 4.92499 6.68332 4.92499 6.39999C4.92499 6.11665 5.01665 5.88332 5.19999 5.69999C5.38332 5.51665 5.61665 5.42499 5.89999 5.42499C6.18332 5.42499 6.41665 5.51665 6.59999 5.69999L11.5 10.6L16.4 5.69999C16.5833 5.51665 16.8167 5.42499 17.1 5.42499C17.3833 5.42499 17.6167 5.51665 17.8 5.69999C17.9833 5.88332 18.075 6.11665 18.075 6.39999C18.075 6.68332 17.9833 6.91665 17.8 7.09999L12.9 12L17.8 16.9C17.9833 17.0833 18.075 17.3167 18.075 17.6C18.075 17.8833 17.9833 18.1167 17.8 18.3C17.6167 18.4833 17.3833 18.575 17.1 18.575C16.8167 18.575 16.5833 18.4833 16.4 18.3L11.5 13.4Z" fill="#F65636"/>
</svg>
