<svg width="15" height="14" viewBox="0 0 15 14" fill="none" xmlns="http://www.w3.org/2000/svg">
<path d="M7.49999 8.39999L2.59999 13.3C2.41665 13.4833 2.18332 13.575 1.89999 13.575C1.61665 13.575 1.38332 13.4833 1.19999 13.3C1.01665 13.1167 0.924988 12.8833 0.924988 12.6C0.924988 12.3167 1.01665 12.0833 1.19999 11.9L6.09999 6.99999L1.19999 2.09999C1.01665 1.91665 0.924988 1.68332 0.924988 1.39999C0.924988 1.11665 1.01665 0.883321 1.19999 0.699988C1.38332 0.516654 1.61665 0.424988 1.89999 0.424988C2.18332 0.424988 2.41665 0.516654 2.59999 0.699988L7.49999 5.59999L12.4 0.699988C12.5833 0.516654 12.8167 0.424988 13.1 0.424988C13.3833 0.424988 13.6167 0.516654 13.8 0.699988C13.9833 0.883321 14.075 1.11665 14.075 1.39999C14.075 1.68332 13.9833 1.91665 13.8 2.09999L8.89999 6.99999L13.8 11.9C13.9833 12.0833 14.075 12.3167 14.075 12.6C14.075 12.8833 13.9833 13.1167 13.8 13.3C13.6167 13.4833 13.3833 13.575 13.1 13.575C12.8167 13.575 12.5833 13.4833 12.4 13.3L7.49999 8.39999Z" fill="#1C1B1F"/>
</svg>
