<svg width="20" height="18" viewBox="0 0 20 18" fill="none" xmlns="http://www.w3.org/2000/svg">
<path d="M3 18C2.16667 18 1.45833 17.7083 0.875 17.125C0.291667 16.5417 0 15.8333 0 15C0 14.1667 0.291667 13.4583 0.875 12.875C1.45833 12.2917 2.16667 12 3 12H17C17.8333 12 18.5417 12.2917 19.125 12.875C19.7083 13.4583 20 14.1667 20 15C20 15.8333 19.7083 16.5417 19.125 17.125C18.5417 17.7083 17.8333 18 17 18H3ZM3 16H17C17.2833 16 17.5208 15.9042 17.7125 15.7125C17.9042 15.5208 18 15.2833 18 15C18 14.7167 17.9042 14.4792 17.7125 14.2875C17.5208 14.0958 17.2833 14 17 14H3C2.71667 14 2.47917 14.0958 2.2875 14.2875C2.09583 14.4792 2 14.7167 2 15C2 15.2833 2.09583 15.5208 2.2875 15.7125C2.47917 15.9042 2.71667 16 3 16ZM8 10C7.71667 10 7.47917 9.90417 7.2875 9.7125C7.09583 9.52083 7 9.28333 7 9V1C7 0.716667 7.09583 0.479167 7.2875 0.2875C7.47917 0.0958333 7.71667 0 8 0H16C16.2833 0 16.5208 0.0958333 16.7125 0.2875C16.9042 0.479167 17 0.716667 17 1V9C17 9.28333 16.9042 9.52083 16.7125 9.7125C16.5208 9.90417 16.2833 10 16 10H8ZM9 8H15V2H9V8ZM0.95 7.95C0.683333 7.95 0.458333 7.85417 0.275 7.6625C0.0916667 7.47083 0 7.24167 0 6.975C0 6.70833 0.0958333 6.48333 0.2875 6.3C0.479167 6.11667 0.708333 6.025 0.975 6.025H3.975C4.24167 6.025 4.46667 6.11667 4.65 6.3C4.83333 6.48333 4.925 6.70833 4.925 6.975C4.925 7.24167 4.83333 7.47083 4.65 7.6625C4.46667 7.85417 4.24167 7.95 3.975 7.95H0.95ZM11 5H13.025C13.3083 5 13.5417 4.90417 13.725 4.7125C13.9083 4.52083 14 4.28333 14 4C14 3.71667 13.9083 3.48333 13.725 3.3C13.5417 3.11667 13.3083 3.025 13.025 3.025H10.975C10.6917 3.025 10.4583 3.11667 10.275 3.3C10.0917 3.48333 10 3.71667 10 4C10 4.28333 10.0958 4.52083 10.2875 4.7125C10.4792 4.90417 10.7167 5 11 5ZM2.975 5C2.69167 5 2.45833 4.90417 2.275 4.7125C2.09167 4.52083 2 4.28333 2 4C2 3.71667 2.09583 3.48333 2.2875 3.3C2.47917 3.11667 2.71667 3.025 3 3.025H3.95C4.23333 3.025 4.46667 3.11667 4.65 3.3C4.83333 3.48333 4.925 3.71667 4.925 4C4.925 4.28333 4.83333 4.52083 4.65 4.7125C4.46667 4.90417 4.23333 5 3.95 5H2.975Z" fill="#1C1B1F"/>
</svg>
