<svg width="18" height="18" viewBox="0 0 18 18" fill="none" xmlns="http://www.w3.org/2000/svg">
<path d="M2 18C1.45 18 0.979167 17.8042 0.5875 17.4125C0.195833 17.0208 0 16.55 0 16V2C0 1.45 0.195833 0.979167 0.5875 0.5875C0.979167 0.195833 1.45 0 2 0H16C16.55 0 17.0208 0.195833 17.4125 0.5875C17.8042 0.979167 18 1.45 18 2V16C18 16.55 17.8042 17.0208 17.4125 17.4125C17.0208 17.8042 16.55 18 16 18H2ZM2 16H16V2H2V16ZM9 15C10.6167 13.6333 11.8208 12.3625 12.6125 11.1875C13.4042 10.0125 13.8 8.925 13.8 7.925C13.8 6.40833 13.3167 5.20833 12.35 4.325C11.3833 3.44167 10.2667 3 9 3C7.73333 3 6.61667 3.44167 5.65 4.325C4.68333 5.20833 4.2 6.40833 4.2 7.925C4.2 8.925 4.59583 10.0125 5.3875 11.1875C6.17917 12.3625 7.38333 13.6333 9 15ZM9 9.25C8.65 9.25 8.35417 9.12917 8.1125 8.8875C7.87083 8.64583 7.75 8.35 7.75 8C7.75 7.65 7.87083 7.35417 8.1125 7.1125C8.35417 6.87083 8.65 6.75 9 6.75C9.35 6.75 9.64583 6.87083 9.8875 7.1125C10.1292 7.35417 10.25 7.65 10.25 8C10.25 8.35 10.1292 8.64583 9.8875 8.8875C9.64583 9.12917 9.35 9.25 9 9.25Z" fill="black"/>
</svg>
