<svg width="17" height="20" viewBox="0 0 17 20" fill="none" xmlns="http://www.w3.org/2000/svg">
<path d="M8.5 17.6C10.5333 15.7333 12.0417 14.0375 13.025 12.5125C14.0083 10.9875 14.5 9.63333 14.5 8.45C14.5 6.63333 13.9208 5.14583 12.7625 3.9875C11.6042 2.82917 10.1833 2.25 8.5 2.25C6.81667 2.25 5.39583 2.82917 4.2375 3.9875C3.07917 5.14583 2.5 6.63333 2.5 8.45C2.5 9.63333 2.99167 10.9875 3.975 12.5125C4.95833 14.0375 6.46667 15.7333 8.5 17.6ZM8.5 19.575C8.26667 19.575 8.03333 19.5333 7.8 19.45C7.56667 19.3667 7.35833 19.2417 7.175 19.075C6.09167 18.075 5.13333 17.1 4.3 16.15C3.46667 15.2 2.77083 14.2792 2.2125 13.3875C1.65417 12.4958 1.22917 11.6375 0.9375 10.8125C0.645833 9.9875 0.5 9.2 0.5 8.45C0.5 5.95 1.30417 3.95833 2.9125 2.475C4.52083 0.991667 6.38333 0.25 8.5 0.25C10.6167 0.25 12.4792 0.991667 14.0875 2.475C15.6958 3.95833 16.5 5.95 16.5 8.45C16.5 9.2 16.3542 9.9875 16.0625 10.8125C15.7708 11.6375 15.3458 12.4958 14.7875 13.3875C14.2292 14.2792 13.5333 15.2 12.7 16.15C11.8667 17.1 10.9083 18.075 9.825 19.075C9.64167 19.2417 9.43333 19.3667 9.2 19.45C8.96667 19.5333 8.73333 19.575 8.5 19.575ZM8.5 10.25C9.05 10.25 9.52083 10.0542 9.9125 9.6625C10.3042 9.27083 10.5 8.8 10.5 8.25C10.5 7.7 10.3042 7.22917 9.9125 6.8375C9.52083 6.44583 9.05 6.25 8.5 6.25C7.95 6.25 7.47917 6.44583 7.0875 6.8375C6.69583 7.22917 6.5 7.7 6.5 8.25C6.5 8.8 6.69583 9.27083 7.0875 9.6625C7.47917 10.0542 7.95 10.25 8.5 10.25Z" fill="#1C1B1F"/>
</svg>
