<svg width="28" height="28" viewBox="0 0 28 28" fill="none" xmlns="http://www.w3.org/2000/svg">
<g clip-path="url(#clip0_569_7557)">
<mask id="mask0_569_7557" style="mask-type:alpha" maskUnits="userSpaceOnUse" x="2" y="2" width="24" height="24">
<rect x="2" y="2" width="24" height="24" fill="#D9D9D9"/>
</mask>
<g mask="url(#mask0_569_7557)">
<path d="M16 15C15.1667 15 14.4583 14.7083 13.875 14.125C13.2917 13.5417 13 12.8333 13 12C13 11.1667 13.2917 10.4583 13.875 9.875C14.4583 9.29167 15.1667 9 16 9C16.8333 9 17.5417 9.29167 18.125 9.875C18.7083 10.4583 19 11.1667 19 12C19 12.8333 18.7083 13.5417 18.125 14.125C17.5417 14.7083 16.8333 15 16 15ZM9 18C8.45 18 7.97917 17.8042 7.5875 17.4125C7.19583 17.0208 7 16.55 7 16V8C7 7.45 7.19583 6.97917 7.5875 6.5875C7.97917 6.19583 8.45 6 9 6H23C23.55 6 24.0208 6.19583 24.4125 6.5875C24.8042 6.97917 25 7.45 25 8V16C25 16.55 24.8042 17.0208 24.4125 17.4125C24.0208 17.8042 23.55 18 23 18H9ZM11 16H21C21 15.45 21.1958 14.9792 21.5875 14.5875C21.9792 14.1958 22.45 14 23 14V10C22.45 10 21.9792 9.80417 21.5875 9.4125C21.1958 9.02083 21 8.55 21 8H11C11 8.55 10.8042 9.02083 10.4125 9.4125C10.0208 9.80417 9.55 10 9 10V14C9.55 14 10.0208 14.1958 10.4125 14.5875C10.8042 14.9792 11 15.45 11 16ZM21 22H5C4.45 22 3.97917 21.8042 3.5875 21.4125C3.19583 21.0208 3 20.55 3 20V10C3 9.71667 3.09583 9.47917 3.2875 9.2875C3.47917 9.09583 3.71667 9 4 9C4.28333 9 4.52083 9.09583 4.7125 9.2875C4.90417 9.47917 5 9.71667 5 10V20H21C21.2833 20 21.5208 20.0958 21.7125 20.2875C21.9042 20.4792 22 20.7167 22 21C22 21.2833 21.9042 21.5208 21.7125 21.7125C21.5208 21.9042 21.2833 22 21 22Z" fill="#1C1B1F"/>
</g>
</g>
<defs>
<clipPath id="clip0_569_7557">
<rect width="24" height="24" fill="white" transform="translate(2 2)"/>
</clipPath>
</defs>
</svg>
