<svg width="20" height="17" viewBox="0 0 20 17" fill="none" xmlns="http://www.w3.org/2000/svg">
<path d="M0.5 15V13.2C0.5 12.6333 0.645833 12.1125 0.9375 11.6375C1.22917 11.1625 1.61667 10.8 2.1 10.55C3.13333 10.0333 4.18333 9.64583 5.25 9.3875C6.31667 9.12917 7.4 9 8.5 9C9.11667 9 9.725 9.0375 10.325 9.1125C10.925 9.1875 11.525 9.30833 12.125 9.475L10.45 11.175C10.1167 11.125 9.79167 11.0833 9.475 11.05C9.15833 11.0167 8.83333 11 8.5 11C7.56667 11 6.64167 11.1125 5.725 11.3375C4.80833 11.5625 3.9 11.9 3 12.35C2.85 12.4333 2.72917 12.55 2.6375 12.7C2.54583 12.85 2.5 13.0167 2.5 13.2V14H8.5V16H1.5C1.21667 16 0.979167 15.9042 0.7875 15.7125C0.595833 15.5208 0.5 15.2833 0.5 15ZM10.5 16V14.75C10.5 14.4833 10.5542 14.2292 10.6625 13.9875C10.7708 13.7458 10.9167 13.5333 11.1 13.35L16.025 8.425C16.175 8.275 16.3417 8.16667 16.525 8.1C16.7083 8.03333 16.8917 8 17.075 8C17.275 8 17.4667 8.0375 17.65 8.1125C17.8333 8.1875 18 8.3 18.15 8.45L19.075 9.375C19.2083 9.525 19.3125 9.69167 19.3875 9.875C19.4625 10.0583 19.5 10.2417 19.5 10.425C19.5 10.6083 19.4667 10.7958 19.4 10.9875C19.3333 11.1792 19.225 11.35 19.075 11.5L14.15 16.425C13.9667 16.6083 13.7542 16.75 13.5125 16.85C13.2708 16.95 13.0167 17 12.75 17H11.5C11.2167 17 10.9792 16.9042 10.7875 16.7125C10.5958 16.5208 10.5 16.2833 10.5 16ZM12 15.5H12.95L15.975 12.45L15.525 11.975L15.05 11.525L12 14.55V15.5ZM15.525 11.975L15.05 11.525L15.975 12.45L15.525 11.975ZM8.5 8C7.4 8 6.45833 7.60833 5.675 6.825C4.89167 6.04167 4.5 5.1 4.5 4C4.5 2.9 4.89167 1.95833 5.675 1.175C6.45833 0.391667 7.4 0 8.5 0C9.6 0 10.5417 0.391667 11.325 1.175C12.1083 1.95833 12.5 2.9 12.5 4C12.5 5.1 12.1083 6.04167 11.325 6.825C10.5417 7.60833 9.6 8 8.5 8ZM8.5 6C9.05 6 9.52083 5.80417 9.9125 5.4125C10.3042 5.02083 10.5 4.55 10.5 4C10.5 3.45 10.3042 2.97917 9.9125 2.5875C9.52083 2.19583 9.05 2 8.5 2C7.95 2 7.47917 2.19583 7.0875 2.5875C6.69583 2.97917 6.5 3.45 6.5 4C6.5 4.55 6.69583 5.02083 7.0875 5.4125C7.47917 5.80417 7.95 6 8.5 6Z" fill="#1C1B1F"/>
</svg>
