<svg width="28" height="28" viewBox="0 0 28 28" fill="none" xmlns="http://www.w3.org/2000/svg">
<g clip-path="url(#clip0_569_6809)">
<mask id="mask0_569_6809" style="mask-type:alpha" maskUnits="userSpaceOnUse" x="2" y="2" width="24" height="24">
<rect x="2" y="2" width="24" height="24" fill="#D9D9D9"/>
</mask>
<g mask="url(#mask0_569_6809)">
<path d="M13.5 21.6C15.5333 19.7333 17.0417 18.0375 18.025 16.5125C19.0083 14.9875 19.5 13.6333 19.5 12.45C19.5 10.6333 18.9208 9.14583 17.7625 7.9875C16.6042 6.82917 15.1833 6.25 13.5 6.25C11.8167 6.25 10.3958 6.82917 9.2375 7.9875C8.07917 9.14583 7.5 10.6333 7.5 12.45C7.5 13.6333 7.99167 14.9875 8.975 16.5125C9.95833 18.0375 11.4667 19.7333 13.5 21.6ZM13.5 23.575C13.2667 23.575 13.0333 23.5333 12.8 23.45C12.5667 23.3667 12.3583 23.2417 12.175 23.075C11.0917 22.075 10.1333 21.1 9.3 20.15C8.46667 19.2 7.77083 18.2792 7.2125 17.3875C6.65417 16.4958 6.22917 15.6375 5.9375 14.8125C5.64583 13.9875 5.5 13.2 5.5 12.45C5.5 9.95 6.30417 7.95833 7.9125 6.475C9.52083 4.99167 11.3833 4.25 13.5 4.25C15.6167 4.25 17.4792 4.99167 19.0875 6.475C20.6958 7.95833 21.5 9.95 21.5 12.45C21.5 13.2 21.3542 13.9875 21.0625 14.8125C20.7708 15.6375 20.3458 16.4958 19.7875 17.3875C19.2292 18.2792 18.5333 19.2 17.7 20.15C16.8667 21.1 15.9083 22.075 14.825 23.075C14.6417 23.2417 14.4333 23.3667 14.2 23.45C13.9667 23.5333 13.7333 23.575 13.5 23.575ZM13.5 14.25C14.05 14.25 14.5208 14.0542 14.9125 13.6625C15.3042 13.2708 15.5 12.8 15.5 12.25C15.5 11.7 15.3042 11.2292 14.9125 10.8375C14.5208 10.4458 14.05 10.25 13.5 10.25C12.95 10.25 12.4792 10.4458 12.0875 10.8375C11.6958 11.2292 11.5 11.7 11.5 12.25C11.5 12.8 11.6958 13.2708 12.0875 13.6625C12.4792 14.0542 12.95 14.25 13.5 14.25Z" fill="#1C1B1F"/>
</g>
</g>
<defs>
<clipPath id="clip0_569_6809">
<rect width="24" height="24" fill="white" transform="translate(2 2)"/>
</clipPath>
</defs>
</svg>
