<svg width="22" height="18" viewBox="0 0 22 18" fill="none" xmlns="http://www.w3.org/2000/svg">
<path d="M4.025 18C3.475 18 3.00416 17.8042 2.6125 17.4125C2.22083 17.0208 2.025 16.55 2.025 16V8.05C1.64166 7.7 1.34583 7.25 1.1375 6.7C0.929163 6.15 0.924997 5.55 1.125 4.9L2.175 1.5C2.30833 1.06667 2.54583 0.708333 2.8875 0.425C3.22916 0.141667 3.625 0 4.075 0H17.975C18.425 0 18.8167 0.1375 19.15 0.4125C19.4833 0.6875 19.725 1.05 19.875 1.5L20.925 4.9C21.125 5.55 21.1208 6.14167 20.9125 6.675C20.7042 7.20833 20.4083 7.66667 20.025 8.05V16C20.025 16.55 19.8292 17.0208 19.4375 17.4125C19.0458 17.8042 18.575 18 18.025 18H4.025ZM13.225 7C13.675 7 14.0167 6.84583 14.25 6.5375C14.4833 6.22917 14.575 5.88333 14.525 5.5L13.975 2H12.025V5.7C12.025 6.05 12.1417 6.35417 12.375 6.6125C12.6083 6.87083 12.8917 7 13.225 7ZM8.725 7C9.10833 7 9.42083 6.87083 9.6625 6.6125C9.90416 6.35417 10.025 6.05 10.025 5.7V2H8.075L7.525 5.5C7.45833 5.9 7.54583 6.25 7.7875 6.55C8.02916 6.85 8.34166 7 8.725 7ZM4.275 7C4.575 7 4.8375 6.89167 5.0625 6.675C5.2875 6.45833 5.425 6.18333 5.475 5.85L6.025 2H4.075L3.075 5.35C2.975 5.68333 3.02916 6.04167 3.2375 6.425C3.44583 6.80833 3.79166 7 4.275 7ZM17.775 7C18.2583 7 18.6083 6.80833 18.825 6.425C19.0417 6.04167 19.0917 5.68333 18.975 5.35L17.925 2H16.025L16.575 5.85C16.625 6.18333 16.7625 6.45833 16.9875 6.675C17.2125 6.89167 17.475 7 17.775 7ZM4.025 16H18.025V8.95C17.9417 8.98333 17.8875 9 17.8625 9H17.775C17.325 9 16.9292 8.925 16.5875 8.775C16.2458 8.625 15.9083 8.38333 15.575 8.05C15.275 8.35 14.9333 8.58333 14.55 8.75C14.1667 8.91667 13.7583 9 13.325 9C12.875 9 12.4542 8.91667 12.0625 8.75C11.6708 8.58333 11.325 8.35 11.025 8.05C10.7417 8.35 10.4125 8.58333 10.0375 8.75C9.6625 8.91667 9.25833 9 8.825 9C8.34166 9 7.90416 8.91667 7.5125 8.75C7.12083 8.58333 6.775 8.35 6.475 8.05C6.125 8.4 5.77916 8.64583 5.4375 8.7875C5.09583 8.92917 4.70833 9 4.275 9H4.1625C4.12083 9 4.075 8.98333 4.025 8.95V16Z" fill="black"/>
</svg>
