<svg width="24" height="24" viewBox="0 0 24 24" fill="none" xmlns="http://www.w3.org/2000/svg">
<g clip-path="url(#clip0_92_3883)">
<mask id="mask0_92_3883" style="mask-type:alpha" maskUnits="userSpaceOnUse" x="0" y="0" width="24" height="24">
<rect width="24" height="24" fill="#D9D9D9"/>
</mask>
<g mask="url(#mask0_92_3883)">
<path d="M16.1742 11L11.2742 6.09995C11.0742 5.89995 10.9784 5.66662 10.9867 5.39995C10.9951 5.13328 11.0992 4.89995 11.2992 4.69995C11.4992 4.51662 11.7326 4.42078 11.9992 4.41245C12.2659 4.40412 12.4992 4.49995 12.6992 4.69995L19.2992 11.3C19.3992 11.4 19.4701 11.5083 19.5117 11.625C19.5534 11.7416 19.5742 11.8666 19.5742 12C19.5742 12.1333 19.5534 12.2583 19.5117 12.375C19.4701 12.4916 19.3992 12.6 19.2992 12.7L12.6992 19.3C12.5159 19.4833 12.2867 19.575 12.0117 19.575C11.7367 19.575 11.4992 19.4833 11.2992 19.3C11.0992 19.1 10.9992 18.8625 10.9992 18.5875C10.9992 18.3125 11.0992 18.075 11.2992 17.875L16.1742 13L4.99922 12.9999C4.71589 12.9999 4.47839 12.9041 4.28672 12.7124C4.09505 12.5208 3.99922 12.2833 3.99922 11.9999C3.99922 11.7166 4.09505 11.4791 4.28672 11.2874C4.47839 11.0958 4.71589 11 4.99922 11L16.1742 11Z" fill="white"/>
</g>
</g>
<defs>
<clipPath id="clip0_92_3883">
<rect width="24" height="24" fill="white"/>
</clipPath>
</defs>
</svg>
