<svg width="24" height="24" viewBox="0 0 24 24" fill="none" xmlns="http://www.w3.org/2000/svg">
<mask id="mask0_561_8218" style="mask-type:alpha" maskUnits="userSpaceOnUse" x="0" y="0" width="24" height="24">
<rect width="24" height="24" fill="#D9D9D9"/>
</mask>
<g mask="url(#mask0_561_8218)">
<path d="M8 18C7.45 18 6.97917 17.8042 6.5875 17.4125C6.19583 17.0208 6 16.55 6 16V4C6 3.45 6.19583 2.97917 6.5875 2.5875C6.97917 2.19583 7.45 2 8 2H20C20.55 2 21.0208 2.19583 21.4125 2.5875C21.8042 2.97917 22 3.45 22 4V16C22 16.55 21.8042 17.0208 21.4125 17.4125C21.0208 17.8042 20.55 18 20 18H8ZM8 16H20V4H8V16ZM4 22C3.45 22 2.97917 21.8042 2.5875 21.4125C2.19583 21.0208 2 20.55 2 20V7C2 6.71667 2.09583 6.47917 2.2875 6.2875C2.47917 6.09583 2.71667 6 3 6C3.28333 6 3.52083 6.09583 3.7125 6.2875C3.90417 6.47917 4 6.71667 4 7V20H17C17.2833 20 17.5208 20.0958 17.7125 20.2875C17.9042 20.4792 18 20.7167 18 21C18 21.2833 17.9042 21.5208 17.7125 21.7125C17.5208 21.9042 17.2833 22 17 22H4ZM12.6 12.8L14 11.4L15.4 12.8C15.5833 12.9833 15.8167 13.075 16.1 13.075C16.3833 13.075 16.6167 12.9833 16.8 12.8C16.9833 12.6167 17.075 12.3833 17.075 12.1C17.075 11.8167 16.9833 11.5833 16.8 11.4L15.4 10L16.8 8.6C16.9833 8.41667 17.075 8.18333 17.075 7.9C17.075 7.61667 16.9833 7.38333 16.8 7.2C16.6167 7.01667 16.3833 6.925 16.1 6.925C15.8167 6.925 15.5833 7.01667 15.4 7.2L14 8.6L12.6 7.2C12.4167 7.01667 12.1833 6.925 11.9 6.925C11.6167 6.925 11.3833 7.01667 11.2 7.2C11.0167 7.38333 10.925 7.61667 10.925 7.9C10.925 8.18333 11.0167 8.41667 11.2 8.6L12.6 10L11.2 11.4C11.0167 11.5833 10.925 11.8167 10.925 12.1C10.925 12.3833 11.0167 12.6167 11.2 12.8C11.3833 12.9833 11.6167 13.075 11.9 13.075C12.1833 13.075 12.4167 12.9833 12.6 12.8Z" fill="#1C1B1F"/>
</g>
</svg>
