<svg width="16" height="16" viewBox="0 0 16 16" fill="none" xmlns="http://www.w3.org/2000/svg">
<path d="M12.175 7.00001L7.27501 2.10001C7.07501 1.90001 6.97918 1.66668 6.98751 1.40001C6.99585 1.13334 7.10001 0.900011 7.30001 0.700011C7.50001 0.516678 7.73335 0.420844 8.00001 0.412511C8.26668 0.404178 8.50001 0.500012 8.70001 0.700012L15.3 7.30001C15.4 7.40001 15.4708 7.50835 15.5125 7.62501C15.5542 7.74168 15.575 7.86668 15.575 8.00001C15.575 8.13335 15.5542 8.25835 15.5125 8.37501C15.4708 8.49168 15.4 8.60001 15.3 8.70001L8.70001 15.3C8.51668 15.4833 8.28751 15.575 8.01251 15.575C7.73751 15.575 7.50001 15.4833 7.30001 15.3C7.10001 15.1 7.00001 14.8625 7.00001 14.5875C7.00001 14.3125 7.10001 14.075 7.30001 13.875L12.175 9.00001L1.00001 9.00001C0.716679 9.00001 0.479179 8.90418 0.287512 8.71251C0.0958458 8.52084 1.30352e-05 8.28334 1.306e-05 8.00001C1.30848e-05 7.71668 0.0958459 7.47918 0.287513 7.28751C0.479179 7.09584 0.716679 7.00001 1.00001 7.00001L12.175 7.00001Z" fill="black"/>
</svg>
