<svg width="16" height="16" viewBox="0 0 16 16" fill="none" xmlns="http://www.w3.org/2000/svg">
<path d="M3.40002 8.98702L8.30002 13.887C8.50002 14.087 8.59585 14.3204 8.58752 14.587C8.57918 14.8537 8.47502 15.087 8.27502 15.287C8.07502 15.4704 7.84168 15.5662 7.57502 15.5745C7.30835 15.5829 7.07502 15.487 6.87502 15.287L0.275015 8.68702C0.175015 8.58702 0.104182 8.47868 0.0625153 8.36202C0.0208486 8.24535 1.52588e-05 8.12035 1.52588e-05 7.98702C1.52588e-05 7.85368 0.0208486 7.72868 0.0625153 7.61202C0.104182 7.49535 0.175015 7.38702 0.275015 7.28702L6.87502 0.687018C7.05835 0.503684 7.28752 0.412018 7.56252 0.412018C7.83752 0.412018 8.07502 0.503684 8.27502 0.687018C8.47502 0.887018 8.57502 1.12452 8.57502 1.39952C8.57502 1.67452 8.47502 1.91202 8.27502 2.11202L3.40002 6.98702L14.575 6.98702C14.8583 6.98702 15.0958 7.08285 15.2875 7.27452C15.4792 7.46618 15.575 7.70368 15.575 7.98702C15.575 8.27035 15.4792 8.50785 15.2875 8.69952C15.0958 8.89118 14.8583 8.98702 14.575 8.98702L3.40002 8.98702Z" fill="black"/>
</svg>
