<svg width="28" height="28" viewBox="0 0 28 28" fill="none" xmlns="http://www.w3.org/2000/svg">
<path d="M8.03749 11.9682H2V23.3432H26.675V21.1557" stroke="black" stroke-width="2.5" stroke-linecap="round" stroke-linejoin="round"/>
<path d="M26.675 14.5932V11.9682H7.77501" stroke="black" stroke-width="2.5" stroke-linecap="round" stroke-linejoin="round"/>
<path d="M26.675 11.9682L13.9875 5.93073C12.2494 5.0473 10.2621 4.78259 8.35328 5.18026C6.44451 5.57792 4.72826 6.6142 3.48751 8.11823C2.5612 9.19082 2.03549 10.5514 2 11.9682" stroke="black" stroke-width="2.5" stroke-linecap="round" stroke-linejoin="round"/>
<path d="M9.08751 20.7182C10.6339 20.7182 11.8875 19.4646 11.8875 17.9182C11.8875 16.3718 10.6339 15.1182 9.08751 15.1182C7.54111 15.1182 6.28749 16.3718 6.28749 17.9182C6.28749 19.4646 7.54111 20.7182 9.08751 20.7182Z" stroke="black" stroke-width="2.5" stroke-linecap="round" stroke-linejoin="round"/>
<path d="M17.75 19.7557C18.7648 19.7557 19.5875 18.933 19.5875 17.9182C19.5875 16.9034 18.7648 16.0807 17.75 16.0807C16.7352 16.0807 15.9125 16.9034 15.9125 17.9182C15.9125 18.933 16.7352 19.7557 17.75 19.7557Z" stroke="black" stroke-width="2.5" stroke-miterlimit="10"/>
<path d="M26.675 21.1557C26.1992 21.2337 25.7122 21.2072 25.2476 21.0782C24.7831 20.9492 24.3522 20.7207 23.9847 20.4086C23.6173 20.0964 23.3221 19.7081 23.1197 19.2705C22.9173 18.833 22.8124 18.3566 22.8124 17.8745C22.8124 17.3923 22.9173 16.916 23.1197 16.4784C23.3221 16.0408 23.6173 15.6525 23.9847 15.3404C24.3522 15.0282 24.7831 14.7998 25.2476 14.6707C25.7122 14.5417 26.1992 14.5153 26.675 14.5932" stroke="black" stroke-width="2.5" stroke-linecap="round" stroke-linejoin="round"/>
</svg>
