<svg width="28" height="28" viewBox="0 0 28 28" fill="none" xmlns="http://www.w3.org/2000/svg">
<path d="M8.38749 25.6625C11.9152 25.6625 14.775 22.8027 14.775 19.275C14.775 15.7473 11.9152 12.8875 8.38749 12.8875C4.85977 12.8875 2 15.7473 2 19.275C2 22.8027 4.85977 25.6625 8.38749 25.6625Z" stroke="black" stroke-width="2.5" stroke-linecap="round" stroke-linejoin="round"/>
<path d="M16.875 13.325C17.6014 13.0454 18.3717 12.8973 19.15 12.8875C20.844 12.8875 22.4687 13.5605 23.6666 14.7583C24.8645 15.9562 25.5375 17.5809 25.5375 19.275C25.5375 20.969 24.8645 22.5937 23.6666 23.7916C22.4687 24.9895 20.844 25.6625 19.15 25.6625C18.409 25.638 17.6741 25.5205 16.9625 25.3125" stroke="black" stroke-width="2.5" stroke-linecap="round" stroke-linejoin="round"/>
<path d="M7.42496 9.29998C7.44796 7.62112 8.13106 6.01883 9.32647 4.8398C10.5219 3.66077 12.1335 2.99984 13.8125 3C15.4834 3 17.0858 3.66374 18.2672 4.84522C19.4487 6.0267 20.1125 7.62912 20.1125 9.29998" stroke="black" stroke-width="2.5" stroke-linecap="round" stroke-linejoin="round"/>
<path d="M7.42496 19.5375C8.34313 19.5375 9.08748 18.7932 9.08748 17.875C9.08748 16.9568 8.34313 16.2125 7.42496 16.2125C6.50678 16.2125 5.76249 16.9568 5.76249 17.875C5.76249 18.7932 6.50678 19.5375 7.42496 19.5375Z" stroke="black" stroke-width="2.5" stroke-linecap="round" stroke-linejoin="round"/>
<path d="M20.4625 21.2C21.3807 21.2 22.125 20.4556 22.125 19.5375C22.125 18.6193 21.3807 17.875 20.4625 17.875C19.5443 17.875 18.8 18.6193 18.8 19.5375C18.8 20.4556 19.5443 21.2 20.4625 21.2Z" stroke="black" stroke-width="2.5" stroke-linecap="round" stroke-linejoin="round"/>
<path d="M13.8125 9.125C14.7307 9.125 15.475 8.38065 15.475 7.46248C15.475 6.54431 14.7307 5.79998 13.8125 5.79998C12.8943 5.79998 12.15 6.54431 12.15 7.46248C12.15 8.38065 12.8943 9.125 13.8125 9.125Z" stroke="black" stroke-width="2.5" stroke-linecap="round" stroke-linejoin="round"/>
</svg>
