<svg width="28" height="28" viewBox="0 0 28 28" fill="none" xmlns="http://www.w3.org/2000/svg">
<path d="M12.7 21.605L9.3525 24.8875C9.11417 25.1258 8.81625 25.245 8.45875 25.245C8.10125 25.245 7.80333 25.115 7.565 24.855C7.305 24.6167 7.175 24.3188 7.175 23.9613C7.175 23.6038 7.305 23.295 7.565 23.035L12.7 17.9V15.3H10.1L4.9325 20.4675C4.69417 20.7058 4.39625 20.825 4.03875 20.825C3.68125 20.825 3.3725 20.695 3.1125 20.435C2.87417 20.1967 2.755 19.8987 2.755 19.5412C2.755 19.1837 2.87417 18.8858 3.1125 18.6475L6.395 15.3H2.2675C1.89917 15.3 1.59583 15.1754 1.3575 14.9263C1.11917 14.6771 1 14.3683 1 14C1 13.6317 1.12458 13.3229 1.37375 13.0738C1.62292 12.8246 1.93167 12.7 2.3 12.7H6.395L3.1125 9.385C2.87417 9.14667 2.755 8.84875 2.755 8.49125C2.755 8.13375 2.885 7.825 3.145 7.565C3.38333 7.32667 3.68125 7.2075 4.03875 7.2075C4.39625 7.2075 4.705 7.32667 4.965 7.565L10.1 12.7H12.7V10.1L7.5325 4.965C7.29417 4.72667 7.175 4.42875 7.175 4.07125C7.175 3.71375 7.305 3.405 7.565 3.145C7.80333 2.90667 8.10125 2.7875 8.45875 2.7875C8.81625 2.7875 9.11417 2.90667 9.3525 3.145L12.7 6.395V2.3C12.7 1.93167 12.8246 1.62292 13.0738 1.37375C13.3229 1.12458 13.6317 1 14 1C14.3683 1 14.6771 1.12458 14.9263 1.37375C15.1754 1.62292 15.3 1.93167 15.3 2.3V6.395L18.615 3.145C18.8533 2.90667 19.1513 2.7875 19.5088 2.7875C19.8663 2.7875 20.175 2.90667 20.435 3.145C20.6733 3.405 20.7925 3.71375 20.7925 4.07125C20.7925 4.42875 20.6733 4.72667 20.435 4.965L15.3 10.1V12.7H17.9L23.035 7.565C23.2733 7.32667 23.5713 7.2075 23.9288 7.2075C24.2863 7.2075 24.595 7.3375 24.855 7.5975C25.0933 7.83583 25.2125 8.13375 25.2125 8.49125C25.2125 8.84875 25.0933 9.14667 24.855 9.385L21.605 12.7H25.7C26.0683 12.7 26.3771 12.8246 26.6262 13.0738C26.8754 13.3229 27 13.6317 27 14C27 14.3683 26.8754 14.6771 26.6262 14.9263C26.3771 15.1754 26.0683 15.3 25.7 15.3H21.605L24.855 18.6475C25.0933 18.8858 25.2125 19.1837 25.2125 19.5412C25.2125 19.8987 25.0933 20.1967 24.855 20.435C24.595 20.695 24.2863 20.825 23.9288 20.825C23.5713 20.825 23.2733 20.695 23.035 20.435L17.9 15.3H15.3V17.9L20.435 23.0675C20.6733 23.3058 20.7925 23.6038 20.7925 23.9613C20.7925 24.3188 20.6625 24.6275 20.4025 24.8875C20.1642 25.1258 19.8663 25.245 19.5088 25.245C19.1513 25.245 18.8533 25.1258 18.615 24.8875L15.3 21.605V25.7325C15.3 26.1008 15.1754 26.4042 14.9263 26.6425C14.6771 26.8808 14.3683 27 14 27C13.6317 27 13.3229 26.8754 13.0738 26.6262C12.8246 26.3771 12.7 26.0683 12.7 25.7V21.605Z" fill="black"/>
</svg>
