<svg width="28" height="28" viewBox="0 0 28 28" fill="none" xmlns="http://www.w3.org/2000/svg">
<path d="M13.825 18.243C13.8406 18.6563 13.8993 19.0669 14 19.468C14.3669 20.6918 14.2413 22.0105 13.65 23.143C13.1728 24.0052 12.4766 24.7262 11.6316 25.2332C10.7866 25.7402 9.82281 26.0152 8.83751 26.0305C7.86321 26.0179 6.91026 25.7431 6.07884 25.2351C5.24741 24.727 4.56817 24.0043 4.11249 23.143C3.53303 22.0094 3.37787 20.706 3.67499 19.468L3.93753 18.243C4.98753 12.5555 4.98753 15.268 3.93753 9.58054L3.67499 8.44305C3.46764 7.65338 3.44423 6.82664 3.60652 6.02649C3.76882 5.22634 4.1125 4.4741 4.61114 3.82762C5.10978 3.18114 5.7501 2.65767 6.4828 2.29749C7.2155 1.9373 8.02107 1.75 8.83751 1.75C9.65396 1.75 10.4595 1.9373 11.1922 2.29749C11.9249 2.65767 12.5652 3.18114 13.0639 3.82762C13.5625 4.4741 13.9062 5.22634 14.0685 6.02649C14.2308 6.82664 14.2074 7.65338 14 8.44305C13.8995 8.81451 13.8408 9.19604 13.825 9.58054C12.775 15.093 12.775 12.818 13.825 18.243Z" stroke="black" stroke-width="2.5" stroke-linecap="round" stroke-linejoin="round"/>
<path d="M18.6375 19.0305C19.8895 18.3933 20.9928 17.4987 21.8751 16.4055C24.6751 13.343 25.2875 9.49303 23.45 7.83053C21.6125 6.16803 19.1625 7.13053 16.7125 9.14303" stroke="black" stroke-width="2.5" stroke-linecap="round" stroke-linejoin="round"/>
<path d="M23.8 8.53053L17.2375 14.218" stroke="black" stroke-width="2.5" stroke-linecap="round" stroke-linejoin="round"/>
</svg>
