<svg width="29" height="30" viewBox="0 0 29 30" fill="none" xmlns="http://www.w3.org/2000/svg">
<path d="M1.875 27.825H27.5125" stroke="black" stroke-width="2.5" stroke-linecap="round" stroke-linejoin="round"/>
<path d="M3.3625 24.675C3.83324 21.9935 5.22923 19.5619 7.30758 17.8033C9.38592 16.0447 12.0151 15.0704 14.7375 15.05C17.4544 15.0563 20.0808 16.0275 22.1481 17.7904C24.2155 19.5533 25.5895 21.9932 26.025 24.675" stroke="black" stroke-width="2.5" stroke-linecap="round" stroke-linejoin="round"/>
<path d="M14.7375 14.9625C15.9939 14.9625 17.0125 13.9439 17.0125 12.6875C17.0125 11.431 15.9939 10.4125 14.7375 10.4125C13.4811 10.4125 12.4625 11.431 12.4625 12.6875C12.4625 13.9439 13.4811 14.9625 14.7375 14.9625Z" stroke="black" stroke-width="2.5" stroke-linecap="round" stroke-linejoin="round"/>
<path d="M14.7375 3.5V6.73748" stroke="black" stroke-width="2.5" stroke-linecap="round" stroke-linejoin="round"/>
<path d="M8 5.6875V8.83751" stroke="black" stroke-width="2.5" stroke-linecap="round" stroke-linejoin="round"/>
<path d="M21.475 5.6875V8.83751" stroke="black" stroke-width="2.5" stroke-linecap="round" stroke-linejoin="round"/>
</svg>
