<svg width="28" height="28" viewBox="0 0 28 28" fill="none" xmlns="http://www.w3.org/2000/svg">
<path d="M10.325 21.8982C12.5479 21.8982 14.35 20.0961 14.35 17.8732C14.35 15.6503 12.5479 13.8482 10.325 13.8482C8.10204 13.8482 6.30001 15.6503 6.30001 17.8732C6.30001 20.0961 8.10204 21.8982 10.325 21.8982Z" stroke="black" stroke-width="2.5" stroke-linecap="round" stroke-linejoin="round"/>
<path d="M18.9 16.9107C18.9 19.185 17.9966 21.366 16.3885 22.9741C14.7803 24.5823 12.5992 25.4857 10.325 25.4857C8.05076 25.4857 5.86969 24.5823 4.26157 22.9741C2.65344 21.366 1.75 19.185 1.75 16.9107C1.75 12.1857 5.59999 4.04821 10.325 4.04821C15.05 4.04821 18.9 12.1857 18.9 16.9107Z" stroke="black" stroke-width="2.5" stroke-linecap="round" stroke-linejoin="round"/>
<path d="M18.55 2.64816C22.1375 2.21066 25.8125 8.0732 26.25 11.6607C26.3811 13.0436 26.0816 14.4333 25.3924 15.6394C24.7032 16.8455 23.658 17.809 22.4 18.3982" stroke="black" stroke-width="2.5" stroke-linecap="round" stroke-linejoin="round"/>
</svg>
