<svg width="28" height="28" viewBox="0 0 28 28" fill="none" xmlns="http://www.w3.org/2000/svg">
<path d="M15.0247 11.875L18.7872 8.1125C18.3431 7.67273 18.0914 7.07494 18.0872 6.45C18.109 5.80716 18.3741 5.19659 18.8289 4.74177C19.2838 4.28694 19.8943 4.02181 20.5372 4C21.1717 4.02267 21.7726 4.29078 22.2133 4.74781C22.654 5.20484 22.9001 5.8151 22.8997 6.45C23.3115 6.42749 23.7224 6.50932 24.0942 6.6879C24.466 6.86648 24.7867 7.13603 25.0265 7.47157C25.2664 7.80712 25.4176 8.19779 25.4663 8.60737C25.5149 9.01695 25.4594 9.43218 25.3048 9.81458C25.1502 10.197 24.9016 10.5342 24.582 10.7949C24.2624 11.0556 23.8821 11.2314 23.4765 11.306C23.0708 11.3806 22.6529 11.3515 22.2614 11.2216C21.87 11.0916 21.5177 10.8649 21.2372 10.5625L17.4747 14.4125" stroke="black" stroke-width="2.5" stroke-linecap="round" stroke-linejoin="round"/>
<path d="M16.2497 19.575C16.3095 21.1008 15.8354 22.5996 14.9091 23.8134C13.9827 25.0273 12.6621 25.8801 11.1747 26.225C10.1406 26.4686 9.06328 26.4609 8.03284 26.2025C7.00239 25.9442 6.04882 25.4427 5.25199 24.7401C4.45516 24.0375 3.83825 23.1543 3.4529 22.1643C3.06756 21.1743 2.92501 20.1064 3.03717 19.05C3.18871 17.4327 3.93465 15.9292 5.1307 14.8301C6.32675 13.731 7.8879 13.1146 9.51217 13.1C10.7854 13.0361 11.9812 12.4697 12.8372 11.525L13.7997 10.65L18.4372 15.2875L17.8247 15.9875C17.3295 16.445 16.934 16.9997 16.663 17.617C16.392 18.2343 16.2513 18.9008 16.2497 19.575Z" stroke="black" stroke-width="2.5" stroke-linecap="round" stroke-linejoin="round"/>
</svg>
