<svg width="28" height="28" viewBox="0 0 28 28" fill="none" xmlns="http://www.w3.org/2000/svg">
<path d="M11.275 2H21.425C22.6085 2 23.7436 2.47017 24.5804 3.30705C25.4173 4.14393 25.8875 5.279 25.8875 6.46253M25.8875 6.46253H11.625C9.07228 6.46253 6.62413 7.47657 4.81909 9.28161C3.01405 11.0866 2 13.5348 2 16.0875C2 18.6402 3.01405 21.0884 4.81909 22.8934C6.62413 24.6984 9.07228 25.7125 11.625 25.7125H24.575V20.2L16.9625 22.65C16.0334 22.9651 15.0558 23.1132 14.075 23.0875C12.9529 23.0878 11.8754 22.6481 11.0738 21.8628C10.2722 21.0776 9.81039 20.0094 9.78749 18.8875C9.78749 17.7504 10.2392 16.6599 11.0433 15.8558C11.8473 15.0517 12.9379 14.6 14.075 14.6H17.75C19.9082 14.6 21.978 13.7427 23.5041 12.2166C25.0302 10.6905 25.8875 8.62073 25.8875 6.46253Z" stroke="black" stroke-width="2.5" stroke-linecap="round" stroke-linejoin="round"/>
<path d="M13.1125 6.46253V14.6875" stroke="black" stroke-width="2.5" stroke-linecap="round" stroke-linejoin="round"/>
<path d="M4.1875 9.96253L10.575 16.35" stroke="black" stroke-width="2.5" stroke-linecap="round" stroke-linejoin="round"/>
<path d="M2.875 20.1125H9.96249" stroke="black" stroke-width="2.5" stroke-linecap="round" stroke-linejoin="round"/>
<path d="M14.6 23.2625V25.7125" stroke="black" stroke-width="2.5" stroke-linecap="round" stroke-linejoin="round"/>
<path d="M17.925 10.4875C18.5049 10.4875 18.975 10.0174 18.975 9.4375C18.975 8.8576 18.5049 8.38749 17.925 8.38749C17.3451 8.38749 16.875 8.8576 16.875 9.4375C16.875 10.0174 17.3451 10.4875 17.925 10.4875Z" fill="black"/>
</svg>
