<svg width="28" height="28" viewBox="0 0 28 28" fill="none" xmlns="http://www.w3.org/2000/svg">
<path d="M3.43261 22.4306V12.6939L2.11238 13.7171C1.80432 13.9371 1.47426 14.0251 1.1222 13.9811C0.770137 13.9371 0.484086 13.7611 0.264047 13.453C0.0440079 13.145 -0.0385069 12.8149 0.0165029 12.4629C0.0715128 12.1108 0.242043 11.8248 0.528094 11.6047L12.3772 2.52809C12.6193 2.35206 12.8778 2.22004 13.1528 2.13202C13.4279 2.04401 13.7084 2 13.9945 2C14.2806 2 14.5611 2.04401 14.8361 2.13202C15.1112 2.22004 15.3697 2.35206 15.6118 2.52809L27.4939 11.6047C27.78 11.8248 27.945 12.1108 27.989 12.4629C28.033 12.8149 27.945 13.145 27.725 13.453C27.5049 13.7391 27.2189 13.9041 26.8668 13.9481C26.5147 13.9921 26.1957 13.9041 25.9096 13.6841L24.5564 12.6939V22.4306C24.5564 23.1568 24.2978 23.7784 23.7807 24.2955C23.2637 24.8126 22.642 25.0711 21.9159 25.0711H6.07308C5.34695 25.0711 4.72534 24.8126 4.20825 24.2955C3.69116 23.7784 3.43261 23.1568 3.43261 22.4306ZM6.07308 22.4306H21.9159V10.6805L13.9945 4.64047L6.07308 10.6805V22.4306ZM8.71356 17.1497C9.08762 17.1497 9.40118 17.0232 9.65422 16.7701C9.90727 16.5171 10.0338 16.2035 10.0338 15.8295C10.0338 15.4554 9.90727 15.1418 9.65422 14.8888C9.40118 14.6358 9.08762 14.5092 8.71356 14.5092C8.33949 14.5092 8.02593 14.6358 7.77289 14.8888C7.51984 15.1418 7.39332 15.4554 7.39332 15.8295C7.39332 16.2035 7.51984 16.5171 7.77289 16.7701C8.02593 17.0232 8.33949 17.1497 8.71356 17.1497ZM13.9945 17.1497C14.3686 17.1497 14.6821 17.0232 14.9352 16.7701C15.1882 16.5171 15.3147 16.2035 15.3147 15.8295C15.3147 15.4554 15.1882 15.1418 14.9352 14.8888C14.6821 14.6358 14.3686 14.5092 13.9945 14.5092C13.6204 14.5092 13.3069 14.6358 13.0538 14.8888C12.8008 15.1418 12.6743 15.4554 12.6743 15.8295C12.6743 16.2035 12.8008 16.5171 13.0538 16.7701C13.3069 17.0232 13.6204 17.1497 13.9945 17.1497ZM19.2754 17.1497C19.6495 17.1497 19.9631 17.0232 20.2161 16.7701C20.4692 16.5171 20.5957 16.2035 20.5957 15.8295C20.5957 15.4554 20.4692 15.1418 20.2161 14.8888C19.9631 14.6358 19.6495 14.5092 19.2754 14.5092C18.9014 14.5092 18.5878 14.6358 18.3348 14.8888C18.0817 15.1418 17.9552 15.4554 17.9552 15.8295C17.9552 16.2035 18.0817 16.5171 18.3348 16.7701C18.5878 17.0232 18.9014 17.1497 19.2754 17.1497Z" fill="black"/>
</svg>
