<svg width="28" height="29" viewBox="0 0 28 29" fill="none" xmlns="http://www.w3.org/2000/svg">
<path d="M21.1463 27.2693C24.0529 27.2693 26.4093 24.913 26.4093 22.0063C26.4093 19.0997 24.0529 16.7434 21.1463 16.7434C18.2396 16.7434 15.8833 19.0997 15.8833 22.0063C15.8833 24.913 18.2396 27.2693 21.1463 27.2693Z" stroke="black" stroke-width="2.5" stroke-linecap="round" stroke-linejoin="round"/>
<path d="M7.26296 27.2693C10.1696 27.2693 12.5259 24.913 12.5259 22.0063C12.5259 19.0997 10.1696 16.7434 7.26296 16.7434C4.35631 16.7434 2 19.0997 2 22.0063C2 24.913 4.35631 27.2693 7.26296 27.2693Z" stroke="black" stroke-width="2.5" stroke-linecap="round" stroke-linejoin="round"/>
<path d="M21.1463 16.7434C21.1463 16.7434 19.0593 7.30632 22.5981 4.40262C8.44259 6.5804 7.26296 16.7434 7.26296 16.7434" stroke="black" stroke-width="2.5" stroke-linecap="round" stroke-linejoin="round"/>
<path d="M15.9316 5.83887L15.5466 6.22385C13.998 7.77242 11.8977 8.64239 9.70772 8.64239C7.51772 8.64239 5.41741 7.77241 3.86885 6.22385L4.25383 5.83887C5.80239 4.2903 7.9027 3.42033 10.0927 3.42033C12.2827 3.42033 14.383 4.29031 15.9316 5.83887Z" stroke="black" stroke-width="2.5" stroke-linejoin="round"/>
</svg>
