<svg width="28" height="28" viewBox="0 0 28 28" fill="none" xmlns="http://www.w3.org/2000/svg">
<path d="M14 27C12.2017 27 10.5117 26.6587 8.93 25.9762C7.34833 25.2937 5.9725 24.3675 4.8025 23.1975C3.6325 22.0275 2.70625 20.6517 2.02375 19.07C1.34125 17.4883 1 15.7983 1 14C1 12.2017 1.34125 10.5117 2.02375 8.93C2.70625 7.34833 3.6325 5.9725 4.8025 4.8025C5.9725 3.6325 7.34833 2.70625 8.93 2.02375C10.5117 1.34125 12.2017 1 14 1C15.7983 1 17.4883 1.34125 19.07 2.02375C20.6517 2.70625 22.0275 3.6325 23.1975 4.8025C24.3675 5.9725 25.2937 7.34833 25.9762 8.93C26.6587 10.5117 27 12.2017 27 14C27 15.7983 26.6587 17.4883 25.9762 19.07C25.2937 20.6517 24.3675 22.0275 23.1975 23.1975C22.0275 24.3675 20.6517 25.2937 19.07 25.9762C17.4883 26.6587 15.7983 27 14 27ZM14 24.4C16.9033 24.4 19.3625 23.3925 21.3775 21.3775C23.3925 19.3625 24.4 16.9033 24.4 14C24.4 13.8483 24.3946 13.6912 24.3838 13.5287C24.3729 13.3662 24.3675 13.2308 24.3675 13.1225C24.2592 13.7508 23.9667 14.2708 23.49 14.6825C23.0133 15.0942 22.45 15.3 21.8 15.3H19.2C18.485 15.3 17.8729 15.0454 17.3638 14.5363C16.8546 14.0271 16.6 13.415 16.6 12.7V11.4H11.4V8.8C11.4 8.085 11.6546 7.47292 12.1638 6.96375C12.6729 6.45458 13.285 6.2 14 6.2H15.3C15.3 5.70167 15.4354 5.26292 15.7062 4.88375C15.9771 4.50458 16.3075 4.19583 16.6975 3.9575C16.2642 3.84917 15.8254 3.7625 15.3812 3.6975C14.9371 3.6325 14.4767 3.6 14 3.6C11.0967 3.6 8.6375 4.6075 6.6225 6.6225C4.6075 8.6375 3.6 11.0967 3.6 14H10.1C11.53 14 12.7542 14.5092 13.7725 15.5275C14.7908 16.5458 15.3 17.77 15.3 19.2V20.5H11.4V24.075C11.8333 24.1833 12.2612 24.2646 12.6838 24.3187C13.1062 24.3729 13.545 24.4 14 24.4Z" fill="black"/>
</svg>
