<svg width="281" height="286" viewBox="0 0 281 286" fill="none" xmlns="http://www.w3.org/2000/svg">
<mask id="path-1-inside-1_480_8194" fill="white">
<path fill-rule="evenodd" clip-rule="evenodd" d="M281 21C281 9.40202 271.598 0 260 0H21C9.40202 0 0 9.40201 0 21V265C0 276.598 9.40202 286 21 286H175C186.598 286 196 276.598 196 265V239C196 227.402 205.402 218 217 218H260C271.598 218 281 208.598 281 197V21Z"/>
</mask>
<path fill-rule="evenodd" clip-rule="evenodd" d="M281 21C281 9.40202 271.598 0 260 0H21C9.40202 0 0 9.40201 0 21V265C0 276.598 9.40202 286 21 286H175C186.598 286 196 276.598 196 265V239C196 227.402 205.402 218 217 218H260C271.598 218 281 208.598 281 197V21Z" fill="white"/>
<path d="M21 2H260V-2H21V2ZM2 265V21H-2V265H2ZM175 284H21V288H175V284ZM198 265V239H194V265H198ZM217 220H260V216H217V220ZM279 21V197H283V21H279ZM260 220C272.703 220 283 209.703 283 197H279C279 207.493 270.493 216 260 216V220ZM198 239C198 228.507 206.507 220 217 220V216C204.297 216 194 226.297 194 239H198ZM175 288C187.703 288 198 277.703 198 265H194C194 275.493 185.493 284 175 284V288ZM-2 265C-2 277.703 8.29745 288 21 288V284C10.5066 284 2 275.493 2 265H-2ZM260 2C270.493 2 279 10.5066 279 21H283C283 8.29745 272.703 -2 260 -2V2ZM21 -2C8.29745 -2 -2 8.29744 -2 21H2C2 10.5066 10.5066 2 21 2V-2Z" fill="#F65636" mask="url(#path-1-inside-1_480_8194)"/>
</svg>
