<svg width="587" height="286" viewBox="0 0 587 286" fill="none" xmlns="http://www.w3.org/2000/svg">
<mask id="path-1-inside-1_557_8741" fill="white">
<path fill-rule="evenodd" clip-rule="evenodd" d="M587 21C587 9.40202 577.598 0 566 0H21C9.40202 0 0 9.40201 0 21V265C0 276.598 9.40202 286 21 286H388.438C400.036 286 409.438 276.598 409.438 265V239C409.438 227.402 418.84 218 430.438 218H566C577.598 218 587 208.598 587 197V21Z"/>
</mask>
<path fill-rule="evenodd" clip-rule="evenodd" d="M587 21C587 9.40202 577.598 0 566 0H21C9.40202 0 0 9.40201 0 21V265C0 276.598 9.40202 286 21 286H388.438C400.036 286 409.438 276.598 409.438 265V239C409.438 227.402 418.84 218 430.438 218H566C577.598 218 587 208.598 587 197V21Z" fill="white"/>
<path d="M21 2H566V-2H21V2ZM2 265V21H-2V265H2ZM388.438 284H21V288H388.438V284ZM411.438 265V239H407.438V265H411.438ZM430.438 220H566V216H430.438V220ZM585 21V197H589V21H585ZM566 220C578.703 220 589 209.703 589 197H585C585 207.493 576.493 216 566 216V220ZM411.438 239C411.438 228.507 419.944 220 430.438 220V216C417.735 216 407.438 226.297 407.438 239H411.438ZM388.438 288C401.14 288 411.438 277.703 411.438 265H407.438C407.438 275.493 398.931 284 388.438 284V288ZM-2 265C-2 277.703 8.29745 288 21 288V284C10.5066 284 2 275.493 2 265H-2ZM566 2C576.493 2 585 10.5066 585 21H589C589 8.29745 578.703 -2 566 -2V2ZM21 -2C8.29745 -2 -2 8.29744 -2 21H2C2 10.5066 10.5066 2 21 2V-2Z" fill="#FFAD21" mask="url(#path-1-inside-1_557_8741)"/>
</svg>
