<svg width="1234" height="199" viewBox="0 0 1234 199" fill="none" xmlns="http://www.w3.org/2000/svg">
<path fill-rule="evenodd" clip-rule="evenodd" d="M338.714 42.6008L338.714 82.2214C328.455 82.5909 320.252 91.0242 320.252 101.374C320.252 111.723 328.455 120.156 338.714 120.526L338.714 158.601L57.0001 158.601L57.0001 120.539C67.5839 120.538 76.1635 111.958 76.1635 101.374C76.1635 90.7896 67.5839 82.2095 57.0001 82.2087L57.0001 42.6008L338.714 42.6008Z" fill="black"/>
<rect x="46.999" y="6.90698" width="62.7568" height="78.9748" rx="31.3784" transform="rotate(7.96521 46.999 6.90698)" fill="#0F5DDE"/>
<rect x="51.2166" y="13.3247" width="52.624" height="67.4318" rx="26.312" transform="rotate(7.96521 51.2166 13.3247)" stroke="#F3A732" stroke-width="1.67116"/>
<g clip-path="url(#clip0_334_8154)">
<path d="M75.4064 46.3502L70.4156 45.6519C69.7294 45.5559 69.2465 44.9158 69.3425 44.2296C69.4385 43.5434 70.0785 43.0605 70.7648 43.1565L75.7555 43.8548C76.4418 43.9508 76.9247 44.5909 76.8286 45.2771C76.7326 45.9633 76.0926 46.4462 75.4064 46.3502Z" fill="white"/>
<path d="M74.8824 50.0934L69.8917 49.3951C69.2055 49.299 68.7226 48.659 68.8186 47.9728C68.9146 47.2866 69.5546 46.8037 70.2409 46.8997L75.2316 47.598C75.9178 47.694 76.4007 48.334 76.3047 49.0203C76.2087 49.7065 75.5687 50.1894 74.8824 50.0934Z" fill="white"/>
<path d="M83.2283 40.4481L81.6186 38.3147L79.4852 39.9244L77.8756 37.791L75.7422 39.4007L74.1325 37.2673L71.9991 38.8769L70.3894 36.7435L68.256 38.3532L66.6464 36.2198L64.2023 53.6874L61.7069 53.3383C61.0207 53.2422 60.3807 53.7251 60.2846 54.4114L59.9355 56.9067C59.6457 58.9779 61.0836 60.8837 63.1548 61.1735L78.1271 63.2685C80.1982 63.5583 82.1041 62.1203 82.3939 60.0492L85.3617 38.8385L83.2283 40.4481ZM74.7332 60.2494L63.504 58.6782C62.8177 58.5821 62.3348 57.9421 62.4309 57.2559L62.6054 56.0082L66.3485 56.5319L71.3392 57.2303L75.0823 57.754L74.7332 60.2494ZM79.8985 59.7C79.8025 60.3862 79.1624 60.8691 78.4762 60.7731C77.79 60.6771 77.3071 60.0371 77.4031 59.3508L77.7523 56.8555C77.8483 56.1692 77.3654 55.5292 76.6792 55.4332L74.1838 55.084L71.6884 54.7349L66.6977 54.0366L68.618 40.312L82.3426 42.2324L79.8985 59.7Z" fill="white"/>
<path d="M79.149 46.8741C79.8381 46.9705 80.4749 46.49 80.5713 45.8009C80.6677 45.1119 80.1873 44.4751 79.4982 44.3787C78.8091 44.2823 78.1723 44.7627 78.0759 45.4518C77.9795 46.1409 78.4599 46.7776 79.149 46.8741Z" fill="white"/>
<path d="M78.6256 50.617C79.3147 50.7134 79.9514 50.2329 80.0478 49.5439C80.1443 48.8548 79.6638 48.218 78.9747 48.1216C78.2857 48.0252 77.6489 48.5056 77.5525 49.1947C77.4561 49.8838 77.9365 50.5206 78.6256 50.617Z" fill="white"/>
</g>
<rect x="7.05518" y="68.1284" width="53.502" height="53.502" rx="9.48617" transform="rotate(-9.92506 7.05518 68.1284)" fill="#11875D"/>
<rect x="12.3844" y="71.8698" width="44.2945" height="44.2945" rx="8.27021" transform="rotate(-9.92506 12.3844 71.8698)" stroke="white" stroke-width="2.43191" stroke-dasharray="3.85 3.85"/>
<g clip-path="url(#clip1_334_8154)">
<path d="M43.2367 94.4769C42.3583 94.6306 41.7734 95.4736 41.9271 96.3519C42.0808 97.2303 42.9172 97.8246 43.7955 97.6709C44.6739 97.5172 45.2668 96.6728 45.1131 95.7945C44.9594 94.9161 44.115 94.3232 43.2367 94.4769ZM35.2516 95.8741C34.3732 96.0277 33.7883 96.8707 33.942 97.7491C34.0957 98.6275 34.9321 99.2218 35.8105 99.0681C36.6888 98.9144 37.2817 98.07 37.128 97.1916C36.9744 96.3133 36.13 95.7204 35.2516 95.8741ZM34.8325 93.4785L35.4314 91.7278L41.3802 90.6869C41.9791 90.5822 42.4488 90.1626 42.6337 89.62L45.0336 82.6411L31.8662 84.9451L30.8362 83.4794L28.2251 83.9363L28.5045 85.5333L30.1015 85.2539L34.0366 90.8115L32.4129 95.5478L44.6939 93.3989L44.4145 91.8019L34.8325 93.4785Z" fill="white"/>
<path d="M42.4787 84.7341L32.7769 86.4316L35.3679 90.093L40.9734 89.1122L42.4787 84.7341Z" fill="#11875D"/>
</g>
<path d="M157.451 81.9648L162.005 94.6008H158.801L155.093 83.5668H156.281L152.555 94.6008H149.369L153.941 81.9648H157.451ZM152.087 90.0108H158.999L159.773 92.3688H151.331L152.087 90.0108ZM164.109 94.6008V81.9648H169.077C170.109 81.9648 170.967 82.1448 171.651 82.5048C172.335 82.8648 172.851 83.3508 173.199 83.9628C173.547 84.5748 173.721 85.2648 173.721 86.0328C173.721 86.7168 173.559 87.3648 173.235 87.9768C172.911 88.5888 172.407 89.0868 171.723 89.4708C171.039 89.8548 170.157 90.0468 169.077 90.0468H167.151V94.6008H164.109ZM167.151 87.6168H168.843C169.467 87.6168 169.917 87.4728 170.193 87.1848C170.469 86.8968 170.607 86.5128 170.607 86.0328C170.607 85.5408 170.469 85.1508 170.193 84.8628C169.917 84.5748 169.467 84.4308 168.843 84.4308H167.151V87.6168ZM181.764 94.7268C180.876 94.7268 180.042 94.5708 179.262 94.2588C178.482 93.9348 177.792 93.4848 177.192 92.9088C176.592 92.3328 176.124 91.6548 175.788 90.8748C175.464 90.0828 175.302 89.2188 175.302 88.2828C175.302 87.3348 175.464 86.4708 175.788 85.6908C176.124 84.9108 176.592 84.2328 177.192 83.6568C177.792 83.0808 178.482 82.6368 179.262 82.3248C180.042 82.0008 180.876 81.8388 181.764 81.8388C182.664 81.8388 183.504 82.0008 184.284 82.3248C185.064 82.6368 185.748 83.0808 186.336 83.6568C186.936 84.2328 187.398 84.9108 187.722 85.6908C188.058 86.4708 188.226 87.3348 188.226 88.2828C188.226 89.2188 188.058 90.0828 187.722 90.8748C187.398 91.6548 186.936 92.3328 186.336 92.9088C185.748 93.4848 185.064 93.9348 184.284 94.2588C183.504 94.5708 182.664 94.7268 181.764 94.7268ZM181.764 91.9548C182.448 91.9548 183.042 91.8048 183.546 91.5048C184.05 91.1928 184.44 90.7608 184.716 90.2088C185.004 89.6568 185.148 89.0148 185.148 88.2828C185.148 87.5268 185.004 86.8788 184.716 86.3388C184.44 85.7868 184.05 85.3608 183.546 85.0608C183.042 84.7608 182.448 84.6108 181.764 84.6108C181.08 84.6108 180.486 84.7608 179.982 85.0608C179.478 85.3608 179.088 85.7868 178.812 86.3388C178.536 86.8788 178.398 87.5268 178.398 88.2828C178.398 89.0148 178.536 89.6568 178.812 90.2088C179.088 90.7608 179.478 91.1928 179.982 91.5048C180.486 91.8048 181.08 91.9548 181.764 91.9548ZM188.764 81.9648H192.202L195.262 88.5708H194.074L197.116 81.9648H200.518L196.162 90.4068V94.6008H193.12V90.4068L188.764 81.9648ZM208.108 81.9648L212.662 94.6008H209.458L205.75 83.5668H206.938L203.212 94.6008H200.026L204.598 81.9648H208.108ZM202.744 90.0108H209.656L210.43 92.3688H201.988L202.744 90.0108ZM226.661 84.4128H221.981V87.0048H226.121V89.3628H221.981V92.1528H226.661V94.6008H218.939V81.9648H226.661V84.4128ZM232.202 81.9648V92.2428H236.234V94.6008H229.16V81.9648H232.202ZM97.2771 118.601V105.965H102.245C103.277 105.965 104.135 106.145 104.819 106.505C105.503 106.865 106.019 107.351 106.367 107.963C106.715 108.575 106.889 109.265 106.889 110.033C106.889 110.717 106.727 111.365 106.403 111.977C106.079 112.589 105.575 113.087 104.891 113.471C104.207 113.855 103.325 114.047 102.245 114.047H100.319V118.601H97.2771ZM100.319 111.617H102.011C102.635 111.617 103.085 111.473 103.361 111.185C103.637 110.897 103.775 110.513 103.775 110.033C103.775 109.541 103.637 109.151 103.361 108.863C103.085 108.575 102.635 108.431 102.011 108.431H100.319V111.617ZM116.696 108.413H112.016V111.005H116.156V113.363H112.016V116.153H116.696V118.601H108.974V105.965H116.696V108.413ZM130.355 120.995C129.947 120.995 129.491 120.917 128.987 120.761C128.483 120.605 128.009 120.347 127.565 119.987C127.133 119.627 126.797 119.135 126.557 118.511L128.951 117.269C129.167 117.629 129.413 117.887 129.689 118.043C129.965 118.199 130.295 118.277 130.679 118.277C130.799 118.277 130.925 118.271 131.057 118.259C131.189 118.247 131.315 118.223 131.435 118.187V120.815C131.291 120.863 131.123 120.905 130.931 120.941C130.751 120.977 130.559 120.995 130.355 120.995ZM125.153 118.727C124.265 118.727 123.431 118.571 122.651 118.259C121.871 117.935 121.181 117.485 120.581 116.909C119.981 116.333 119.513 115.655 119.177 114.875C118.853 114.083 118.691 113.219 118.691 112.283C118.691 111.335 118.853 110.471 119.177 109.691C119.513 108.911 119.981 108.233 120.581 107.657C121.181 107.081 121.871 106.637 122.651 106.325C123.431 106.001 124.265 105.839 125.153 105.839C126.053 105.839 126.893 106.001 127.673 106.325C128.453 106.637 129.137 107.081 129.725 107.657C130.325 108.233 130.787 108.911 131.111 109.691C131.447 110.471 131.615 111.335 131.615 112.283C131.615 113.219 131.447 114.083 131.111 114.875C130.787 115.655 130.325 116.333 129.725 116.909C129.137 117.485 128.453 117.935 127.673 118.259C126.893 118.571 126.053 118.727 125.153 118.727ZM125.153 115.955C125.837 115.955 126.431 115.805 126.935 115.505C127.439 115.193 127.829 114.761 128.105 114.209C128.393 113.657 128.537 113.015 128.537 112.283C128.537 111.527 128.393 110.879 128.105 110.339C127.829 109.787 127.439 109.361 126.935 109.061C126.431 108.761 125.837 108.611 125.153 108.611C124.469 108.611 123.875 108.761 123.371 109.061C122.867 109.361 122.477 109.787 122.201 110.339C121.925 110.879 121.787 111.527 121.787 112.283C121.787 113.015 121.925 113.657 122.201 114.209C122.477 114.761 122.867 115.193 123.371 115.505C123.875 115.805 124.469 115.955 125.153 115.955ZM133.563 105.965H136.587V113.543C136.587 114.299 136.773 114.887 137.145 115.307C137.529 115.715 138.087 115.919 138.819 115.919C139.551 115.919 140.109 115.715 140.493 115.307C140.877 114.887 141.069 114.299 141.069 113.543V105.965H144.111V113.525C144.111 114.677 143.865 115.643 143.373 116.423C142.881 117.191 142.233 117.767 141.429 118.151C140.625 118.535 139.737 118.727 138.765 118.727C137.793 118.727 136.911 118.535 136.119 118.151C135.339 117.767 134.715 117.191 134.247 116.423C133.791 115.643 133.563 114.677 133.563 113.525V105.965ZM154.513 108.413H149.833V111.005H153.973V113.363H149.833V116.153H154.513V118.601H146.791V105.965H154.513V108.413ZM168.28 105.965V118.601H165.238L160.054 110.753V118.601H157.012V105.965H160.054L165.238 113.867V105.965H168.28ZM163.762 105.083C163.402 105.083 163.09 105.017 162.826 104.885C162.562 104.753 162.322 104.621 162.106 104.489C161.89 104.345 161.662 104.273 161.422 104.273C161.206 104.273 161.032 104.339 160.9 104.471C160.768 104.603 160.672 104.807 160.612 105.083H159.064C159.208 104.147 159.496 103.475 159.928 103.067C160.372 102.647 160.906 102.437 161.53 102.437C161.89 102.437 162.202 102.503 162.466 102.635C162.73 102.767 162.97 102.905 163.186 103.049C163.402 103.181 163.63 103.247 163.87 103.247C164.086 103.247 164.26 103.181 164.392 103.049C164.524 102.917 164.614 102.713 164.662 102.437H166.228C166.084 103.385 165.79 104.063 165.346 104.471C164.914 104.879 164.386 105.083 163.762 105.083ZM176.97 118.727C176.082 118.727 175.248 118.571 174.468 118.259C173.688 117.935 172.998 117.485 172.398 116.909C171.798 116.333 171.33 115.655 170.994 114.875C170.67 114.083 170.508 113.219 170.508 112.283C170.508 111.335 170.67 110.471 170.994 109.691C171.33 108.911 171.798 108.233 172.398 107.657C172.998 107.081 173.688 106.637 174.468 106.325C175.248 106.001 176.082 105.839 176.97 105.839C177.87 105.839 178.71 106.001 179.49 106.325C180.27 106.637 180.954 107.081 181.542 107.657C182.142 108.233 182.604 108.911 182.928 109.691C183.264 110.471 183.432 111.335 183.432 112.283C183.432 113.219 183.264 114.083 182.928 114.875C182.604 115.655 182.142 116.333 181.542 116.909C180.954 117.485 180.27 117.935 179.49 118.259C178.71 118.571 177.87 118.727 176.97 118.727ZM176.97 115.955C177.654 115.955 178.248 115.805 178.752 115.505C179.256 115.193 179.646 114.761 179.922 114.209C180.21 113.657 180.354 113.015 180.354 112.283C180.354 111.527 180.21 110.879 179.922 110.339C179.646 109.787 179.256 109.361 178.752 109.061C178.248 108.761 177.654 108.611 176.97 108.611C176.286 108.611 175.692 108.761 175.188 109.061C174.684 109.361 174.294 109.787 174.018 110.339C173.742 110.879 173.604 111.527 173.604 112.283C173.604 113.015 173.742 113.657 174.018 114.209C174.294 114.761 174.684 115.193 175.188 115.505C175.692 115.805 176.286 115.955 176.97 115.955ZM195.826 118.727C194.902 118.727 194.05 118.571 193.27 118.259C192.502 117.935 191.836 117.485 191.272 116.909C190.708 116.321 190.27 115.637 189.958 114.857C189.658 114.077 189.508 113.219 189.508 112.283C189.508 111.323 189.664 110.453 189.976 109.673C190.288 108.881 190.726 108.203 191.29 107.639C191.866 107.063 192.538 106.619 193.306 106.307C194.086 105.995 194.926 105.839 195.826 105.839C196.786 105.839 197.656 106.007 198.436 106.343C199.216 106.679 199.882 107.159 200.434 107.783C200.986 108.395 201.394 109.127 201.658 109.979L198.706 110.897C198.454 110.081 198.076 109.499 197.572 109.151C197.08 108.791 196.492 108.611 195.808 108.611C195.172 108.611 194.614 108.761 194.134 109.061C193.654 109.361 193.276 109.787 193 110.339C192.736 110.891 192.604 111.539 192.604 112.283C192.604 113.027 192.736 113.675 193 114.227C193.264 114.779 193.636 115.211 194.116 115.523C194.596 115.823 195.154 115.973 195.79 115.973C196.522 115.973 197.14 115.781 197.644 115.397C198.148 115.013 198.532 114.437 198.796 113.669L201.784 114.371C201.544 115.271 201.136 116.051 200.56 116.711C199.996 117.359 199.306 117.857 198.49 118.205C197.686 118.553 196.798 118.727 195.826 118.727ZM210.005 118.727C209.117 118.727 208.283 118.571 207.503 118.259C206.723 117.935 206.033 117.485 205.433 116.909C204.833 116.333 204.365 115.655 204.029 114.875C203.705 114.083 203.543 113.219 203.543 112.283C203.543 111.335 203.705 110.471 204.029 109.691C204.365 108.911 204.833 108.233 205.433 107.657C206.033 107.081 206.723 106.637 207.503 106.325C208.283 106.001 209.117 105.839 210.005 105.839C210.905 105.839 211.745 106.001 212.525 106.325C213.305 106.637 213.989 107.081 214.577 107.657C215.177 108.233 215.639 108.911 215.963 109.691C216.299 110.471 216.467 111.335 216.467 112.283C216.467 113.219 216.299 114.083 215.963 114.875C215.639 115.655 215.177 116.333 214.577 116.909C213.989 117.485 213.305 117.935 212.525 118.259C211.745 118.571 210.905 118.727 210.005 118.727ZM210.005 115.955C210.689 115.955 211.283 115.805 211.787 115.505C212.291 115.193 212.681 114.761 212.957 114.209C213.245 113.657 213.389 113.015 213.389 112.283C213.389 111.527 213.245 110.879 212.957 110.339C212.681 109.787 212.291 109.361 211.787 109.061C211.283 108.761 210.689 108.611 210.005 108.611C209.321 108.611 208.727 108.761 208.223 109.061C207.719 109.361 207.329 109.787 207.053 110.339C206.777 110.879 206.639 111.527 206.639 112.283C206.639 113.015 206.777 113.657 207.053 114.209C207.329 114.761 207.719 115.193 208.223 115.505C208.727 115.805 209.321 115.955 210.005 115.955ZM218.697 105.965H222.279L226.455 116.225L225.213 116.405L229.407 105.965H232.971V118.601H229.929V108.143L230.937 108.305L227.067 118.601H224.619L220.749 108.305L221.739 108.143V118.601H218.697V105.965ZM243.425 108.413H238.745V111.005H242.885V113.363H238.745V116.153H243.425V118.601H235.703V105.965H243.425V108.413ZM245.924 118.601V105.965H251.072C252.068 105.965 252.908 106.127 253.592 106.451C254.276 106.775 254.798 107.231 255.158 107.819C255.53 108.395 255.716 109.067 255.716 109.835C255.716 110.615 255.476 111.305 254.996 111.905C254.516 112.493 253.85 112.889 252.998 113.093C253.622 113.297 254.174 113.651 254.654 114.155C255.134 114.659 255.536 115.289 255.86 116.045C256.184 116.789 256.4 117.641 256.508 118.601H253.232C253.172 117.773 253.016 117.035 252.764 116.387C252.512 115.739 252.122 115.217 251.594 114.821C251.27 114.569 250.892 114.377 250.46 114.245C250.028 114.101 249.53 114.023 248.966 114.011V118.601H245.924ZM248.966 111.581H250.892C251.456 111.581 251.882 111.431 252.17 111.131C252.47 110.819 252.62 110.429 252.62 109.961C252.62 109.505 252.47 109.139 252.17 108.863C251.87 108.575 251.444 108.431 250.892 108.431H248.966V111.581ZM264.138 118.727C263.214 118.727 262.362 118.571 261.582 118.259C260.814 117.935 260.148 117.485 259.584 116.909C259.02 116.321 258.582 115.637 258.27 114.857C257.97 114.077 257.82 113.219 257.82 112.283C257.82 111.323 257.976 110.453 258.288 109.673C258.6 108.881 259.038 108.203 259.602 107.639C260.178 107.063 260.85 106.619 261.618 106.307C262.398 105.995 263.238 105.839 264.138 105.839C265.098 105.839 265.968 106.007 266.748 106.343C267.528 106.679 268.194 107.159 268.746 107.783C269.298 108.395 269.706 109.127 269.97 109.979L267.018 110.897C266.766 110.081 266.388 109.499 265.884 109.151C265.392 108.791 264.804 108.611 264.12 108.611C263.484 108.611 262.926 108.761 262.446 109.061C261.966 109.361 261.588 109.787 261.312 110.339C261.048 110.891 260.916 111.539 260.916 112.283C260.916 113.027 261.048 113.675 261.312 114.227C261.576 114.779 261.948 115.211 262.428 115.523C262.908 115.823 263.466 115.973 264.102 115.973C264.834 115.973 265.452 115.781 265.956 115.397C266.46 115.013 266.844 114.437 267.108 113.669L270.096 114.371C269.856 115.271 269.448 116.051 268.872 116.711C268.308 117.359 267.618 117.857 266.802 118.205C265.998 118.553 265.11 118.727 264.138 118.727ZM272.305 118.601V116.171H273.691V108.395H272.305V105.965H278.119V108.395H276.733V116.171H278.119V118.601H272.305ZM286.762 118.727C285.874 118.727 285.04 118.571 284.26 118.259C283.48 117.935 282.79 117.485 282.19 116.909C281.59 116.333 281.122 115.655 280.786 114.875C280.462 114.083 280.3 113.219 280.3 112.283C280.3 111.335 280.462 110.471 280.786 109.691C281.122 108.911 281.59 108.233 282.19 107.657C282.79 107.081 283.48 106.637 284.26 106.325C285.04 106.001 285.874 105.839 286.762 105.839C287.662 105.839 288.502 106.001 289.282 106.325C290.062 106.637 290.746 107.081 291.334 107.657C291.934 108.233 292.396 108.911 292.72 109.691C293.056 110.471 293.224 111.335 293.224 112.283C293.224 113.219 293.056 114.083 292.72 114.875C292.396 115.655 291.934 116.333 291.334 116.909C290.746 117.485 290.062 117.935 289.282 118.259C288.502 118.571 287.662 118.727 286.762 118.727ZM286.762 115.955C287.446 115.955 288.04 115.805 288.544 115.505C289.048 115.193 289.438 114.761 289.714 114.209C290.002 113.657 290.146 113.015 290.146 112.283C290.146 111.527 290.002 110.879 289.714 110.339C289.438 109.787 289.048 109.361 288.544 109.061C288.04 108.761 287.446 108.611 286.762 108.611C286.078 108.611 285.484 108.761 284.98 109.061C284.476 109.361 284.086 109.787 283.81 110.339C283.534 110.879 283.396 111.527 283.396 112.283C283.396 113.015 283.534 113.657 283.81 114.209C284.086 114.761 284.476 115.193 284.98 115.505C285.484 115.805 286.078 115.955 286.762 115.955Z" fill="white"/>
<path fill-rule="evenodd" clip-rule="evenodd" d="M763.714 42.6008L763.714 82.2214C753.455 82.5909 745.252 91.0242 745.252 101.374C745.252 111.723 753.455 120.156 763.714 120.526L763.714 158.601L482 158.601L482 120.539C492.584 120.538 501.164 111.958 501.164 101.374C501.164 90.7896 492.584 82.2095 482 82.2087L482 42.6008L763.714 42.6008Z" fill="black"/>
<circle cx="486.915" cy="139.604" r="38.9149" fill="#F3A732"/>
<circle cx="486.769" cy="139.688" r="33.421" stroke="#ED5835" stroke-width="1.83129" stroke-dasharray="4.35 4.35"/>
<path fill-rule="evenodd" clip-rule="evenodd" d="M488.581 158.705L550.888 142.01L552.855 149.354C558.017 149.788 562.59 153.392 564.008 158.684C565.426 163.976 563.268 169.383 559.015 172.341L560.927 179.477L498.62 196.172L496.708 189.035C491.547 188.6 486.974 184.997 485.556 179.705C484.138 174.413 486.296 169.006 490.549 166.049L488.581 158.705Z" fill="#ED5835"/>
<path d="M524.401 179.086C525.408 179.086 526.223 178.272 526.223 177.264H522.579C522.579 178.272 523.394 179.086 524.401 179.086ZM530.81 173.593V168.099C530.81 165.031 528.65 162.468 525.774 161.845V159.4H523.027V161.845C520.152 162.468 517.991 165.031 517.991 168.099V173.593L516.16 175.424V176.34H532.642V175.424L530.81 173.593ZM525.317 172.677H523.485V170.846H525.317V172.677ZM525.317 169.014H523.485V165.352H525.317V169.014Z" fill="#F3A732"/>
<path d="M477.105 139.577C475.088 139.577 473.365 138.914 471.936 137.586C470.532 136.234 469.83 134.498 469.83 132.38C469.83 130.21 470.494 128.449 471.821 127.096C473.174 125.744 474.922 125.067 477.066 125.067C479.083 125.067 480.805 125.769 482.235 127.173C483.664 128.551 484.379 130.299 484.379 132.418C484.379 134.536 483.664 136.259 482.235 137.586C480.805 138.914 479.095 139.577 477.105 139.577ZM477.947 152.632C477.615 152.632 477.398 152.53 477.296 152.326C477.194 152.122 477.219 151.892 477.373 151.637L490.772 126.024C491.002 125.641 491.257 125.45 491.538 125.45H493.988C494.295 125.45 494.499 125.552 494.601 125.756C494.728 125.961 494.716 126.19 494.562 126.445L481.239 152.058C481.061 152.441 480.742 152.632 480.282 152.632H477.947ZM477.755 137.931C478.878 137.931 479.44 136.859 479.44 134.715C479.44 132.928 479.121 131.154 478.483 129.393C477.845 127.632 477.054 126.752 476.109 126.752C474.986 126.752 474.425 127.9 474.425 130.197C474.425 132.061 474.744 133.822 475.382 135.481C476.02 137.114 476.811 137.931 477.755 137.931ZM495.137 153.015C493.12 153.015 491.398 152.352 489.968 151.024C488.565 149.672 487.863 147.936 487.863 145.818C487.863 143.648 488.526 141.887 489.853 140.534C491.206 139.182 492.955 138.505 495.098 138.505C497.14 138.505 498.863 139.194 500.267 140.573C501.696 141.951 502.411 143.712 502.411 145.856C502.411 147.974 501.696 149.697 500.267 151.024C498.838 152.352 497.128 153.015 495.137 153.015ZM495.788 151.369C496.911 151.369 497.472 150.297 497.472 148.153C497.472 146.366 497.153 144.592 496.515 142.831C495.877 141.07 495.086 140.19 494.141 140.19C493.018 140.19 492.457 141.326 492.457 143.597C492.457 145.486 492.776 147.26 493.414 148.919C494.052 150.552 494.843 151.369 495.788 151.369Z" fill="#FFF3E8"/>
<path d="M537 72.4128H532.32V75.0048H536.46V77.3628H532.32V80.1528H537V82.6008H529.278V69.9648H537V72.4128ZM550.766 69.9648V82.6008H547.724L542.54 74.7528V82.6008H539.498V69.9648H542.54L547.724 77.8668V69.9648H550.766ZM552.814 69.9648H562.57V72.3948H559.204V82.6008H556.162V72.3948H552.814V69.9648ZM572.355 72.4128H567.675V75.0048H571.815V77.3628H567.675V80.1528H572.355V82.6008H564.633V69.9648H572.355V72.4128ZM570.573 65.0508V67.4088L566.253 69.2448V67.1388L570.573 65.0508ZM574.854 82.6008V69.9648H580.002C580.998 69.9648 581.838 70.1268 582.522 70.4508C583.206 70.7748 583.728 71.2308 584.088 71.8188C584.46 72.3948 584.646 73.0668 584.646 73.8348C584.646 74.6148 584.406 75.3048 583.926 75.9048C583.446 76.4928 582.78 76.8888 581.928 77.0928C582.552 77.2968 583.104 77.6508 583.584 78.1548C584.064 78.6588 584.466 79.2888 584.79 80.0448C585.114 80.7888 585.33 81.6408 585.438 82.6008H582.162C582.102 81.7728 581.946 81.0348 581.694 80.3868C581.442 79.7388 581.052 79.2168 580.524 78.8208C580.2 78.5688 579.822 78.3768 579.39 78.2448C578.958 78.1008 578.46 78.0228 577.896 78.0108V82.6008H574.854ZM577.896 75.5808H579.822C580.386 75.5808 580.812 75.4308 581.1 75.1308C581.4 74.8188 581.55 74.4288 581.55 73.9608C581.55 73.5048 581.4 73.1388 581.1 72.8628C580.8 72.5748 580.374 72.4308 579.822 72.4308H577.896V75.5808ZM595.071 69.9648L599.625 82.6008H596.421L592.713 71.5668H593.901L590.175 82.6008H586.989L591.561 69.9648H595.071ZM589.707 78.0108H596.619L597.393 80.3688H588.951L589.707 78.0108ZM599.551 69.9648H609.307V72.3948H605.941V82.6008H602.899V72.3948H599.551V69.9648ZM619.091 72.4128H614.411V75.0048H618.551V77.3628H614.411V80.1528H619.091V82.6008H611.369V69.9648H619.091V72.4128ZM625.94 82.6008V69.9648H630.656C632.012 69.9648 633.182 70.2348 634.166 70.7748C635.162 71.3028 635.93 72.0408 636.47 72.9888C637.01 73.9248 637.28 75.0288 637.28 76.3008C637.28 77.5368 637.01 78.6288 636.47 79.5768C635.93 80.5248 635.162 81.2688 634.166 81.8088C633.182 82.3368 632.012 82.6008 630.656 82.6008H625.94ZM628.982 79.9728H630.476C631.652 79.9728 632.564 79.6548 633.212 79.0188C633.872 78.3708 634.202 77.4648 634.202 76.3008C634.202 75.1128 633.872 74.1948 633.212 73.5468C632.564 72.8988 631.652 72.5748 630.476 72.5748H628.982V79.9728ZM647.222 72.4128H642.542V75.0048H646.682V77.3628H642.542V80.1528H647.222V82.6008H639.5V69.9648H647.222V72.4128ZM653.387 69.9648H663.143V72.3948H659.777V82.6008H656.735V72.3948H653.387V69.9648ZM670.812 82.7268C669.924 82.7268 669.09 82.5708 668.31 82.2588C667.53 81.9348 666.84 81.4848 666.24 80.9088C665.64 80.3328 665.172 79.6548 664.836 78.8748C664.512 78.0828 664.35 77.2188 664.35 76.2828C664.35 75.3348 664.512 74.4708 664.836 73.6908C665.172 72.9108 665.64 72.2328 666.24 71.6568C666.84 71.0808 667.53 70.6368 668.31 70.3248C669.09 70.0008 669.924 69.8388 670.812 69.8388C671.712 69.8388 672.552 70.0008 673.332 70.3248C674.112 70.6368 674.796 71.0808 675.384 71.6568C675.984 72.2328 676.446 72.9108 676.77 73.6908C677.106 74.4708 677.274 75.3348 677.274 76.2828C677.274 77.2188 677.106 78.0828 676.77 78.8748C676.446 79.6548 675.984 80.3328 675.384 80.9088C674.796 81.4848 674.112 81.9348 673.332 82.2588C672.552 82.5708 671.712 82.7268 670.812 82.7268ZM670.812 79.9548C671.496 79.9548 672.09 79.8048 672.594 79.5048C673.098 79.1928 673.488 78.7608 673.764 78.2088C674.052 77.6568 674.196 77.0148 674.196 76.2828C674.196 75.5268 674.052 74.8788 673.764 74.3388C673.488 73.7868 673.098 73.3608 672.594 73.0608C672.09 72.7608 671.496 72.6108 670.812 72.6108C670.128 72.6108 669.534 72.7608 669.03 73.0608C668.526 73.3608 668.136 73.7868 667.86 74.3388C667.584 74.8788 667.446 75.5268 667.446 76.2828C667.446 77.0148 667.584 77.6568 667.86 78.2088C668.136 78.7608 668.526 79.1928 669.03 79.5048C669.534 79.8048 670.128 79.9548 670.812 79.9548ZM679.504 82.6008V69.9648H684.22C685.576 69.9648 686.746 70.2348 687.73 70.7748C688.726 71.3028 689.494 72.0408 690.034 72.9888C690.574 73.9248 690.844 75.0288 690.844 76.3008C690.844 77.5368 690.574 78.6288 690.034 79.5768C689.494 80.5248 688.726 81.2688 687.73 81.8088C686.746 82.3368 685.576 82.6008 684.22 82.6008H679.504ZM682.546 79.9728H684.04C685.216 79.9728 686.128 79.6548 686.776 79.0188C687.436 78.3708 687.766 77.4648 687.766 76.3008C687.766 75.1128 687.436 74.1948 686.776 73.5468C686.128 72.8988 685.216 72.5748 684.04 72.5748H682.546V79.9728ZM699.616 69.9648L704.17 82.6008H700.966L697.258 71.5668H698.446L694.72 82.6008H691.534L696.106 69.9648H699.616ZM694.252 78.0108H701.164L701.938 80.3688H693.496L694.252 78.0108ZM710.832 82.7268C709.932 82.7268 709.128 82.5768 708.42 82.2768C707.712 81.9648 707.13 81.5328 706.674 80.9808C706.218 80.4168 705.912 79.7628 705.756 79.0188L708.726 78.3528C708.858 78.9408 709.098 79.4028 709.446 79.7388C709.794 80.0748 710.214 80.2428 710.706 80.2428C711.222 80.2428 711.618 80.1348 711.894 79.9188C712.182 79.7028 712.326 79.4148 712.326 79.0548C712.326 78.7308 712.212 78.4668 711.984 78.2628C711.756 78.0468 711.456 77.8668 711.084 77.7228C710.712 77.5788 710.298 77.4348 709.842 77.2908C709.398 77.1468 708.948 76.9848 708.492 76.8048C708.048 76.6248 707.634 76.4028 707.25 76.1388C706.878 75.8628 706.578 75.5208 706.35 75.1128C706.122 74.7048 706.008 74.2008 706.008 73.6008C706.008 72.8088 706.2 72.1308 706.584 71.5668C706.968 71.0028 707.502 70.5768 708.186 70.2888C708.882 69.9888 709.686 69.8388 710.598 69.8388C711.426 69.8388 712.164 69.9768 712.812 70.2528C713.46 70.5288 713.988 70.9128 714.396 71.4048C714.804 71.8848 715.068 72.4548 715.188 73.1148L712.236 73.8888C712.14 73.3728 711.942 72.9828 711.642 72.7188C711.342 72.4428 710.97 72.3048 710.526 72.3048C710.262 72.3048 710.022 72.3528 709.806 72.4488C709.59 72.5328 709.416 72.6588 709.284 72.8268C709.164 72.9948 709.104 73.2048 709.104 73.4568C709.104 73.7688 709.218 74.0268 709.446 74.2308C709.674 74.4348 709.98 74.6148 710.364 74.7708C710.748 74.9148 711.168 75.0588 711.624 75.2028C712.08 75.3348 712.53 75.4908 712.974 75.6708C713.43 75.8508 713.844 76.0788 714.216 76.3548C714.6 76.6188 714.906 76.9548 715.134 77.3628C715.374 77.7588 715.494 78.2568 715.494 78.8568C715.494 79.5648 715.29 80.2128 714.882 80.8008C714.486 81.3768 713.94 81.8448 713.244 82.2048C712.548 82.5528 711.744 82.7268 710.832 82.7268ZM565.504 93.9648V104.243H569.536V106.601H562.462V93.9648H565.504ZM579.129 93.9648L583.683 106.601H580.479L576.771 95.5668H577.959L574.233 106.601H571.047L575.619 93.9648H579.129ZM573.765 102.011H580.677L581.451 104.369H573.009L573.765 102.011ZM590.345 106.727C589.445 106.727 588.641 106.577 587.933 106.277C587.225 105.965 586.643 105.533 586.187 104.981C585.731 104.417 585.425 103.763 585.269 103.019L588.239 102.353C588.371 102.941 588.611 103.403 588.959 103.739C589.307 104.075 589.727 104.243 590.219 104.243C590.735 104.243 591.131 104.135 591.407 103.919C591.695 103.703 591.839 103.415 591.839 103.055C591.839 102.731 591.725 102.467 591.497 102.263C591.269 102.047 590.969 101.867 590.597 101.723C590.225 101.579 589.811 101.435 589.355 101.291C588.911 101.147 588.461 100.985 588.005 100.805C587.561 100.625 587.147 100.403 586.763 100.139C586.391 99.8628 586.091 99.5208 585.863 99.1128C585.635 98.7048 585.521 98.2008 585.521 97.6008C585.521 96.8088 585.713 96.1308 586.097 95.5668C586.481 95.0028 587.015 94.5768 587.699 94.2888C588.395 93.9888 589.199 93.8388 590.111 93.8388C590.939 93.8388 591.677 93.9768 592.325 94.2528C592.973 94.5288 593.501 94.9128 593.909 95.4048C594.317 95.8848 594.581 96.4548 594.701 97.1148L591.749 97.8888C591.653 97.3728 591.455 96.9828 591.155 96.7188C590.855 96.4428 590.483 96.3048 590.039 96.3048C589.775 96.3048 589.535 96.3528 589.319 96.4488C589.103 96.5328 588.929 96.6588 588.797 96.8268C588.677 96.9948 588.617 97.2048 588.617 97.4568C588.617 97.7688 588.731 98.0268 588.959 98.2308C589.187 98.4348 589.493 98.6148 589.877 98.7708C590.261 98.9148 590.681 99.0588 591.137 99.2028C591.593 99.3348 592.043 99.4908 592.487 99.6708C592.943 99.8508 593.357 100.079 593.729 100.355C594.113 100.619 594.419 100.955 594.647 101.363C594.887 101.759 595.007 102.257 595.007 102.857C595.007 103.565 594.803 104.213 594.395 104.801C593.999 105.377 593.453 105.845 592.757 106.205C592.061 106.553 591.257 106.727 590.345 106.727ZM607.703 106.727C606.815 106.727 605.981 106.571 605.201 106.259C604.421 105.935 603.731 105.485 603.131 104.909C602.531 104.333 602.063 103.655 601.727 102.875C601.403 102.083 601.241 101.219 601.241 100.283C601.241 99.3348 601.403 98.4708 601.727 97.6908C602.063 96.9108 602.531 96.2328 603.131 95.6568C603.731 95.0808 604.421 94.6368 605.201 94.3248C605.981 94.0008 606.815 93.8388 607.703 93.8388C608.603 93.8388 609.443 94.0008 610.223 94.3248C611.003 94.6368 611.687 95.0808 612.275 95.6568C612.875 96.2328 613.337 96.9108 613.661 97.6908C613.997 98.4708 614.165 99.3348 614.165 100.283C614.165 101.219 613.997 102.083 613.661 102.875C613.337 103.655 612.875 104.333 612.275 104.909C611.687 105.485 611.003 105.935 610.223 106.259C609.443 106.571 608.603 106.727 607.703 106.727ZM607.703 103.955C608.387 103.955 608.981 103.805 609.485 103.505C609.989 103.193 610.379 102.761 610.655 102.209C610.943 101.657 611.087 101.015 611.087 100.283C611.087 99.5268 610.943 98.8788 610.655 98.3388C610.379 97.7868 609.989 97.3608 609.485 97.0608C608.981 96.7608 608.387 96.6108 607.703 96.6108C607.019 96.6108 606.425 96.7608 605.921 97.0608C605.417 97.3608 605.027 97.7868 604.751 98.3388C604.475 98.8788 604.337 99.5268 604.337 100.283C604.337 101.015 604.475 101.657 604.751 102.209C605.027 102.761 605.417 103.193 605.921 103.505C606.425 103.805 607.019 103.955 607.703 103.955ZM616.396 93.9648H624.586V96.3948H619.438V99.1128H623.308V101.471H619.438V106.601H616.396V93.9648ZM634.444 96.4128H629.764V99.0048H633.904V101.363H629.764V104.153H634.444V106.601H626.722V93.9648H634.444V96.4128ZM636.943 106.601V93.9648H642.091C643.087 93.9648 643.927 94.1268 644.611 94.4508C645.295 94.7748 645.817 95.2308 646.177 95.8188C646.549 96.3948 646.735 97.0668 646.735 97.8348C646.735 98.6148 646.495 99.3048 646.015 99.9048C645.535 100.493 644.869 100.889 644.017 101.093C644.641 101.297 645.193 101.651 645.673 102.155C646.153 102.659 646.555 103.289 646.879 104.045C647.203 104.789 647.419 105.641 647.527 106.601H644.251C644.191 105.773 644.035 105.035 643.783 104.387C643.531 103.739 643.141 103.217 642.613 102.821C642.289 102.569 641.911 102.377 641.479 102.245C641.047 102.101 640.549 102.023 639.985 102.011V106.601H636.943ZM639.985 99.5808H641.911C642.475 99.5808 642.901 99.4308 643.189 99.1308C643.489 98.8188 643.639 98.4288 643.639 97.9608C643.639 97.5048 643.489 97.1388 643.189 96.8628C642.889 96.5748 642.463 96.4308 641.911 96.4308H639.985V99.5808ZM648.659 93.9648H658.415V96.3948H655.049V106.601H652.007V96.3948H648.659V93.9648ZM666.431 93.9648L670.985 106.601H667.781L664.073 95.5668H665.261L661.535 106.601H658.349L662.921 93.9648H666.431ZM661.067 102.011H667.979L668.753 104.369H660.311L661.067 102.011ZM677.647 106.727C676.747 106.727 675.943 106.577 675.235 106.277C674.527 105.965 673.945 105.533 673.489 104.981C673.033 104.417 672.727 103.763 672.571 103.019L675.541 102.353C675.673 102.941 675.913 103.403 676.261 103.739C676.609 104.075 677.029 104.243 677.521 104.243C678.037 104.243 678.433 104.135 678.709 103.919C678.997 103.703 679.141 103.415 679.141 103.055C679.141 102.731 679.027 102.467 678.799 102.263C678.571 102.047 678.271 101.867 677.899 101.723C677.527 101.579 677.113 101.435 676.657 101.291C676.213 101.147 675.763 100.985 675.307 100.805C674.863 100.625 674.449 100.403 674.065 100.139C673.693 99.8628 673.393 99.5208 673.165 99.1128C672.937 98.7048 672.823 98.2008 672.823 97.6008C672.823 96.8088 673.015 96.1308 673.399 95.5668C673.783 95.0028 674.317 94.5768 675.001 94.2888C675.697 93.9888 676.501 93.8388 677.413 93.8388C678.241 93.8388 678.979 93.9768 679.627 94.2528C680.275 94.5288 680.803 94.9128 681.211 95.4048C681.619 95.8848 681.883 96.4548 682.003 97.1148L679.051 97.8888C678.955 97.3728 678.757 96.9828 678.457 96.7188C678.157 96.4428 677.785 96.3048 677.341 96.3048C677.077 96.3048 676.837 96.3528 676.621 96.4488C676.405 96.5328 676.231 96.6588 676.099 96.8268C675.979 96.9948 675.919 97.2048 675.919 97.4568C675.919 97.7688 676.033 98.0268 676.261 98.2308C676.489 98.4348 676.795 98.6148 677.179 98.7708C677.563 98.9148 677.983 99.0588 678.439 99.2028C678.895 99.3348 679.345 99.4908 679.789 99.6708C680.245 99.8508 680.659 100.079 681.031 100.355C681.415 100.619 681.721 100.955 681.949 101.363C682.189 101.759 682.309 102.257 682.309 102.857C682.309 103.565 682.105 104.213 681.697 104.801C681.301 105.377 680.755 105.845 680.059 106.205C679.363 106.553 678.559 106.727 677.647 106.727ZM552.047 117.965H555.485L558.545 124.571H557.357L560.399 117.965H563.801L559.445 126.407V130.601H556.403V126.407L552.047 117.965ZM569.909 130.601V117.965H574.625C575.981 117.965 577.151 118.235 578.135 118.775C579.131 119.303 579.899 120.041 580.439 120.989C580.979 121.925 581.249 123.029 581.249 124.301C581.249 125.537 580.979 126.629 580.439 127.577C579.899 128.525 579.131 129.269 578.135 129.809C577.151 130.337 575.981 130.601 574.625 130.601H569.909ZM572.951 127.973H574.445C575.621 127.973 576.533 127.655 577.181 127.019C577.841 126.371 578.171 125.465 578.171 124.301C578.171 123.113 577.841 122.195 577.181 121.547C576.533 120.899 575.621 120.575 574.445 120.575H572.951V127.973ZM591.192 120.413H586.512V123.005H590.652V125.363H586.512V128.153H591.192V130.601H583.47V117.965H591.192V120.413ZM598.425 130.727C597.525 130.727 596.721 130.577 596.013 130.277C595.305 129.965 594.723 129.533 594.267 128.981C593.811 128.417 593.505 127.763 593.349 127.019L596.319 126.353C596.451 126.941 596.691 127.403 597.039 127.739C597.387 128.075 597.807 128.243 598.299 128.243C598.815 128.243 599.211 128.135 599.487 127.919C599.775 127.703 599.919 127.415 599.919 127.055C599.919 126.731 599.805 126.467 599.577 126.263C599.349 126.047 599.049 125.867 598.677 125.723C598.305 125.579 597.891 125.435 597.435 125.291C596.991 125.147 596.541 124.985 596.085 124.805C595.641 124.625 595.227 124.403 594.843 124.139C594.471 123.863 594.171 123.521 593.943 123.113C593.715 122.705 593.601 122.201 593.601 121.601C593.601 120.809 593.793 120.131 594.177 119.567C594.561 119.003 595.095 118.577 595.779 118.289C596.475 117.989 597.279 117.839 598.191 117.839C599.019 117.839 599.757 117.977 600.405 118.253C601.053 118.529 601.581 118.913 601.989 119.405C602.397 119.885 602.661 120.455 602.781 121.115L599.829 121.889C599.733 121.373 599.535 120.983 599.235 120.719C598.935 120.443 598.563 120.305 598.119 120.305C597.855 120.305 597.615 120.353 597.399 120.449C597.183 120.533 597.009 120.659 596.877 120.827C596.757 120.995 596.697 121.205 596.697 121.457C596.697 121.769 596.811 122.027 597.039 122.231C597.267 122.435 597.573 122.615 597.957 122.771C598.341 122.915 598.761 123.059 599.217 123.203C599.673 123.335 600.123 123.491 600.567 123.671C601.023 123.851 601.437 124.079 601.809 124.355C602.193 124.619 602.499 124.955 602.727 125.363C602.967 125.759 603.087 126.257 603.087 126.857C603.087 127.565 602.883 128.213 602.475 128.801C602.079 129.377 601.533 129.845 600.837 130.205C600.141 130.553 599.337 130.727 598.425 130.727ZM611.29 130.727C610.366 130.727 609.514 130.571 608.734 130.259C607.966 129.935 607.3 129.485 606.736 128.909C606.172 128.321 605.734 127.637 605.422 126.857C605.122 126.077 604.972 125.219 604.972 124.283C604.972 123.323 605.128 122.453 605.44 121.673C605.752 120.881 606.19 120.203 606.754 119.639C607.33 119.063 608.002 118.619 608.77 118.307C609.55 117.995 610.39 117.839 611.29 117.839C612.25 117.839 613.12 118.007 613.9 118.343C614.68 118.679 615.346 119.159 615.898 119.783C616.45 120.395 616.858 121.127 617.122 121.979L614.17 122.897C613.918 122.081 613.54 121.499 613.036 121.151C612.544 120.791 611.956 120.611 611.272 120.611C610.636 120.611 610.078 120.761 609.598 121.061C609.118 121.361 608.74 121.787 608.464 122.339C608.2 122.891 608.068 123.539 608.068 124.283C608.068 125.027 608.2 125.675 608.464 126.227C608.728 126.779 609.1 127.211 609.58 127.523C610.06 127.823 610.618 127.973 611.254 127.973C611.986 127.973 612.604 127.781 613.108 127.397C613.612 127.013 613.996 126.437 614.26 125.669L617.248 126.371C617.008 127.271 616.6 128.051 616.024 128.711C615.46 129.359 614.77 129.857 613.954 130.205C613.15 130.553 612.262 130.727 611.29 130.727ZM619.475 117.965H622.499V125.543C622.499 126.299 622.685 126.887 623.057 127.307C623.441 127.715 623.999 127.919 624.731 127.919C625.463 127.919 626.021 127.715 626.405 127.307C626.789 126.887 626.981 126.299 626.981 125.543V117.965H630.023V125.525C630.023 126.677 629.777 127.643 629.285 128.423C628.793 129.191 628.145 129.767 627.341 130.151C626.537 130.535 625.649 130.727 624.677 130.727C623.705 130.727 622.823 130.535 622.031 130.151C621.251 129.767 620.627 129.191 620.159 128.423C619.703 127.643 619.475 126.677 619.475 125.525V117.965ZM640.424 120.413H635.744V123.005H639.884V125.363H635.744V128.153H640.424V130.601H632.702V117.965H640.424V120.413ZM654.191 117.965V130.601H651.149L645.965 122.753V130.601H642.923V117.965H645.965L651.149 125.867V117.965H654.191ZM656.239 117.965H665.995V120.395H662.629V130.601H659.587V120.395H656.239V117.965ZM673.664 130.727C672.776 130.727 671.942 130.571 671.162 130.259C670.382 129.935 669.692 129.485 669.092 128.909C668.492 128.333 668.024 127.655 667.688 126.875C667.364 126.083 667.202 125.219 667.202 124.283C667.202 123.335 667.364 122.471 667.688 121.691C668.024 120.911 668.492 120.233 669.092 119.657C669.692 119.081 670.382 118.637 671.162 118.325C671.942 118.001 672.776 117.839 673.664 117.839C674.564 117.839 675.404 118.001 676.184 118.325C676.964 118.637 677.648 119.081 678.236 119.657C678.836 120.233 679.298 120.911 679.622 121.691C679.958 122.471 680.126 123.335 680.126 124.283C680.126 125.219 679.958 126.083 679.622 126.875C679.298 127.655 678.836 128.333 678.236 128.909C677.648 129.485 676.964 129.935 676.184 130.259C675.404 130.571 674.564 130.727 673.664 130.727ZM673.664 127.955C674.348 127.955 674.942 127.805 675.446 127.505C675.95 127.193 676.34 126.761 676.616 126.209C676.904 125.657 677.048 125.015 677.048 124.283C677.048 123.527 676.904 122.879 676.616 122.339C676.34 121.787 675.95 121.361 675.446 121.061C674.942 120.761 674.348 120.611 673.664 120.611C672.98 120.611 672.386 120.761 671.882 121.061C671.378 121.361 670.988 121.787 670.712 122.339C670.436 122.879 670.298 123.527 670.298 124.283C670.298 125.015 670.436 125.657 670.712 126.209C670.988 126.761 671.378 127.193 671.882 127.505C672.386 127.805 672.98 127.955 673.664 127.955ZM687.091 130.727C686.191 130.727 685.387 130.577 684.679 130.277C683.971 129.965 683.389 129.533 682.933 128.981C682.477 128.417 682.171 127.763 682.015 127.019L684.985 126.353C685.117 126.941 685.357 127.403 685.705 127.739C686.053 128.075 686.473 128.243 686.965 128.243C687.481 128.243 687.877 128.135 688.153 127.919C688.441 127.703 688.585 127.415 688.585 127.055C688.585 126.731 688.471 126.467 688.243 126.263C688.015 126.047 687.715 125.867 687.343 125.723C686.971 125.579 686.557 125.435 686.101 125.291C685.657 125.147 685.207 124.985 684.751 124.805C684.307 124.625 683.893 124.403 683.509 124.139C683.137 123.863 682.837 123.521 682.609 123.113C682.381 122.705 682.267 122.201 682.267 121.601C682.267 120.809 682.459 120.131 682.843 119.567C683.227 119.003 683.761 118.577 684.445 118.289C685.141 117.989 685.945 117.839 686.857 117.839C687.685 117.839 688.423 117.977 689.071 118.253C689.719 118.529 690.247 118.913 690.655 119.405C691.063 119.885 691.327 120.455 691.447 121.115L688.495 121.889C688.399 121.373 688.201 120.983 687.901 120.719C687.601 120.443 687.229 120.305 686.785 120.305C686.521 120.305 686.281 120.353 686.065 120.449C685.849 120.533 685.675 120.659 685.543 120.827C685.423 120.995 685.363 121.205 685.363 121.457C685.363 121.769 685.477 122.027 685.705 122.231C685.933 122.435 686.239 122.615 686.623 122.771C687.007 122.915 687.427 123.059 687.883 123.203C688.339 123.335 688.789 123.491 689.233 123.671C689.689 123.851 690.103 124.079 690.475 124.355C690.859 124.619 691.165 124.955 691.393 125.363C691.633 125.759 691.753 126.257 691.753 126.857C691.753 127.565 691.549 128.213 691.141 128.801C690.745 129.377 690.199 129.845 689.503 130.205C688.807 130.553 688.003 130.727 687.091 130.727Z" fill="white"/>
<path fill-rule="evenodd" clip-rule="evenodd" d="M1154.71 42.6008L1154.71 82.2214C1144.46 82.5909 1136.25 91.0242 1136.25 101.374C1136.25 111.723 1144.46 120.156 1154.71 120.526L1154.71 158.601L873 158.601L873 120.539C883.584 120.538 892.164 111.958 892.164 101.374C892.164 90.7896 883.584 82.2095 873 82.2087L873 42.6008L1154.71 42.6008Z" fill="black"/>
<path d="M917.799 82.7268C916.875 82.7268 916.023 82.5708 915.243 82.2588C914.475 81.9348 913.809 81.4848 913.245 80.9088C912.681 80.3208 912.243 79.6368 911.931 78.8568C911.631 78.0768 911.481 77.2188 911.481 76.2828C911.481 75.3228 911.637 74.4528 911.949 73.6728C912.261 72.8808 912.699 72.2028 913.263 71.6388C913.839 71.0628 914.511 70.6188 915.279 70.3068C916.059 69.9948 916.899 69.8388 917.799 69.8388C918.759 69.8388 919.629 70.0068 920.409 70.3428C921.189 70.6788 921.855 71.1588 922.407 71.7828C922.959 72.3948 923.367 73.1268 923.631 73.9788L920.679 74.8968C920.427 74.0808 920.049 73.4988 919.545 73.1508C919.053 72.7908 918.465 72.6108 917.781 72.6108C917.145 72.6108 916.587 72.7608 916.107 73.0608C915.627 73.3608 915.249 73.7868 914.973 74.3388C914.709 74.8908 914.577 75.5388 914.577 76.2828C914.577 77.0268 914.709 77.6748 914.973 78.2268C915.237 78.7788 915.609 79.2108 916.089 79.5228C916.569 79.8228 917.127 79.9728 917.763 79.9728C918.495 79.9728 919.113 79.7808 919.617 79.3968C920.121 79.0128 920.505 78.4368 920.769 77.6688L923.757 78.3708C923.517 79.2708 923.109 80.0508 922.533 80.7108C921.969 81.3588 921.279 81.8568 920.463 82.2048C919.659 82.5528 918.771 82.7268 917.799 82.7268ZM931.978 82.7268C931.09 82.7268 930.256 82.5708 929.476 82.2588C928.696 81.9348 928.006 81.4848 927.406 80.9088C926.806 80.3328 926.338 79.6548 926.002 78.8748C925.678 78.0828 925.516 77.2188 925.516 76.2828C925.516 75.3348 925.678 74.4708 926.002 73.6908C926.338 72.9108 926.806 72.2328 927.406 71.6568C928.006 71.0808 928.696 70.6368 929.476 70.3248C930.256 70.0008 931.09 69.8388 931.978 69.8388C932.878 69.8388 933.718 70.0008 934.498 70.3248C935.278 70.6368 935.962 71.0808 936.55 71.6568C937.15 72.2328 937.612 72.9108 937.936 73.6908C938.272 74.4708 938.44 75.3348 938.44 76.2828C938.44 77.2188 938.272 78.0828 937.936 78.8748C937.612 79.6548 937.15 80.3328 936.55 80.9088C935.962 81.4848 935.278 81.9348 934.498 82.2588C933.718 82.5708 932.878 82.7268 931.978 82.7268ZM931.978 79.9548C932.662 79.9548 933.256 79.8048 933.76 79.5048C934.264 79.1928 934.654 78.7608 934.93 78.2088C935.218 77.6568 935.362 77.0148 935.362 76.2828C935.362 75.5268 935.218 74.8788 934.93 74.3388C934.654 73.7868 934.264 73.3608 933.76 73.0608C933.256 72.7608 932.662 72.6108 931.978 72.6108C931.294 72.6108 930.7 72.7608 930.196 73.0608C929.692 73.3608 929.302 73.7868 929.026 74.3388C928.75 74.8788 928.612 75.5268 928.612 76.2828C928.612 77.0148 928.75 77.6568 929.026 78.2088C929.302 78.7608 929.692 79.1928 930.196 79.5048C930.7 79.8048 931.294 79.9548 931.978 79.9548ZM940.67 69.9648H944.252L948.428 80.2248L947.186 80.4048L951.38 69.9648H954.944V82.6008H951.902V72.1428L952.91 72.3048L949.04 82.6008H946.592L942.722 72.3048L943.712 72.1428V82.6008H940.67V69.9648ZM957.676 82.6008V69.9648H962.644C963.676 69.9648 964.534 70.1448 965.218 70.5048C965.902 70.8648 966.418 71.3508 966.766 71.9628C967.114 72.5748 967.288 73.2648 967.288 74.0328C967.288 74.7168 967.126 75.3648 966.802 75.9768C966.478 76.5888 965.974 77.0868 965.29 77.4708C964.606 77.8548 963.724 78.0468 962.644 78.0468H960.718V82.6008H957.676ZM960.718 75.6168H962.41C963.034 75.6168 963.484 75.4728 963.76 75.1848C964.036 74.8968 964.174 74.5128 964.174 74.0328C964.174 73.5408 964.036 73.1508 963.76 72.8628C963.484 72.5748 963.034 72.4308 962.41 72.4308H960.718V75.6168ZM969.373 82.6008V69.9648H974.521C975.517 69.9648 976.357 70.1268 977.041 70.4508C977.725 70.7748 978.247 71.2308 978.607 71.8188C978.979 72.3948 979.165 73.0668 979.165 73.8348C979.165 74.6148 978.925 75.3048 978.445 75.9048C977.965 76.4928 977.299 76.8888 976.447 77.0928C977.071 77.2968 977.623 77.6508 978.103 78.1548C978.583 78.6588 978.985 79.2888 979.309 80.0448C979.633 80.7888 979.849 81.6408 979.957 82.6008H976.681C976.621 81.7728 976.465 81.0348 976.213 80.3868C975.961 79.7388 975.571 79.2168 975.043 78.8208C974.719 78.5688 974.341 78.3768 973.909 78.2448C973.477 78.1008 972.979 78.0228 972.415 78.0108V82.6008H969.373ZM972.415 75.5808H974.341C974.905 75.5808 975.331 75.4308 975.619 75.1308C975.919 74.8188 976.069 74.4288 976.069 73.9608C976.069 73.5048 975.919 73.1388 975.619 72.8628C975.319 72.5748 974.893 72.4308 974.341 72.4308H972.415V75.5808ZM989.591 69.9648L994.145 82.6008H990.941L987.233 71.5668H988.421L984.695 82.6008H981.509L986.081 69.9648H989.591ZM984.227 78.0108H991.139L991.913 80.3688H983.471L984.227 78.0108ZM1000.42 82.6008V69.9648H1005.39C1006.42 69.9648 1007.28 70.1448 1007.96 70.5048C1008.65 70.8648 1009.16 71.3508 1009.51 71.9628C1009.86 72.5748 1010.03 73.2648 1010.03 74.0328C1010.03 74.7168 1009.87 75.3648 1009.55 75.9768C1009.22 76.5888 1008.72 77.0868 1008.04 77.4708C1007.35 77.8548 1006.47 78.0468 1005.39 78.0468H1003.46V82.6008H1000.42ZM1003.46 75.6168H1005.16C1005.78 75.6168 1006.23 75.4728 1006.51 75.1848C1006.78 74.8968 1006.92 74.5128 1006.92 74.0328C1006.92 73.5408 1006.78 73.1508 1006.51 72.8628C1006.23 72.5748 1005.78 72.4308 1005.16 72.4308H1003.46V75.6168ZM1012.12 82.6008V69.9648H1017.27C1018.26 69.9648 1019.1 70.1268 1019.79 70.4508C1020.47 70.7748 1020.99 71.2308 1021.35 71.8188C1021.73 72.3948 1021.91 73.0668 1021.91 73.8348C1021.91 74.6148 1021.67 75.3048 1021.19 75.9048C1020.71 76.4928 1020.05 76.8888 1019.19 77.0928C1019.82 77.2968 1020.37 77.6508 1020.85 78.1548C1021.33 78.6588 1021.73 79.2888 1022.06 80.0448C1022.38 80.7888 1022.6 81.6408 1022.7 82.6008H1019.43C1019.37 81.7728 1019.21 81.0348 1018.96 80.3868C1018.71 79.7388 1018.32 79.2168 1017.79 78.8208C1017.47 78.5688 1017.09 78.3768 1016.66 78.2448C1016.22 78.1008 1015.73 78.0228 1015.16 78.0108V82.6008H1012.12ZM1015.16 75.5808H1017.09C1017.65 75.5808 1018.08 75.4308 1018.37 75.1308C1018.67 74.8188 1018.82 74.4288 1018.82 73.9608C1018.82 73.5048 1018.67 73.1388 1018.37 72.8628C1018.07 72.5748 1017.64 72.4308 1017.09 72.4308H1015.16V75.5808ZM1030.48 82.7268C1029.59 82.7268 1028.76 82.5708 1027.98 82.2588C1027.2 81.9348 1026.51 81.4848 1025.91 80.9088C1025.31 80.3328 1024.84 79.6548 1024.5 78.8748C1024.18 78.0828 1024.02 77.2188 1024.02 76.2828C1024.02 75.3348 1024.18 74.4708 1024.5 73.6908C1024.84 72.9108 1025.31 72.2328 1025.91 71.6568C1026.51 71.0808 1027.2 70.6368 1027.98 70.3248C1028.76 70.0008 1029.59 69.8388 1030.48 69.8388C1031.38 69.8388 1032.22 70.0008 1033 70.3248C1033.78 70.6368 1034.46 71.0808 1035.05 71.6568C1035.65 72.2328 1036.11 72.9108 1036.44 73.6908C1036.77 74.4708 1036.94 75.3348 1036.94 76.2828C1036.94 77.2188 1036.77 78.0828 1036.44 78.8748C1036.11 79.6548 1035.65 80.3328 1035.05 80.9088C1034.46 81.4848 1033.78 81.9348 1033 82.2588C1032.22 82.5708 1031.38 82.7268 1030.48 82.7268ZM1030.48 79.9548C1031.16 79.9548 1031.76 79.8048 1032.26 79.5048C1032.76 79.1928 1033.15 78.7608 1033.43 78.2088C1033.72 77.6568 1033.86 77.0148 1033.86 76.2828C1033.86 75.5268 1033.72 74.8788 1033.43 74.3388C1033.15 73.7868 1032.76 73.3608 1032.26 73.0608C1031.76 72.7608 1031.16 72.6108 1030.48 72.6108C1029.79 72.6108 1029.2 72.7608 1028.7 73.0608C1028.19 73.3608 1027.8 73.7868 1027.53 74.3388C1027.25 74.8788 1027.11 75.5268 1027.11 76.2828C1027.11 77.0148 1027.25 77.6568 1027.53 78.2088C1027.8 78.7608 1028.19 79.1928 1028.7 79.5048C1029.2 79.8048 1029.79 79.9548 1030.48 79.9548ZM1039.17 82.6008V69.9648H1043.89C1045.24 69.9648 1046.41 70.2348 1047.4 70.7748C1048.39 71.3028 1049.16 72.0408 1049.7 72.9888C1050.24 73.9248 1050.51 75.0288 1050.51 76.3008C1050.51 77.5368 1050.24 78.6288 1049.7 79.5768C1049.16 80.5248 1048.39 81.2688 1047.4 81.8088C1046.41 82.3368 1045.24 82.6008 1043.89 82.6008H1039.17ZM1042.21 79.9728H1043.71C1044.88 79.9728 1045.79 79.6548 1046.44 79.0188C1047.1 78.3708 1047.43 77.4648 1047.43 76.3008C1047.43 75.1128 1047.1 74.1948 1046.44 73.5468C1045.79 72.8988 1044.88 72.5748 1043.71 72.5748H1042.21V79.9728ZM1052.69 69.9648H1055.72V77.5428C1055.72 78.2988 1055.9 78.8868 1056.28 79.3068C1056.66 79.7148 1057.22 79.9188 1057.95 79.9188C1058.68 79.9188 1059.24 79.7148 1059.62 79.3068C1060.01 78.8868 1060.2 78.2988 1060.2 77.5428V69.9648H1063.24V77.5248C1063.24 78.6768 1063 79.6428 1062.5 80.4228C1062.01 81.1908 1061.36 81.7668 1060.56 82.1508C1059.76 82.5348 1058.87 82.7268 1057.9 82.7268C1056.92 82.7268 1056.04 82.5348 1055.25 82.1508C1054.47 81.7668 1053.85 81.1908 1053.38 80.4228C1052.92 79.6428 1052.69 78.6768 1052.69 77.5248V69.9648ZM1071.74 82.7268C1070.81 82.7268 1069.96 82.5708 1069.18 82.2588C1068.41 81.9348 1067.75 81.4848 1067.18 80.9088C1066.62 80.3208 1066.18 79.6368 1065.87 78.8568C1065.57 78.0768 1065.42 77.2188 1065.42 76.2828C1065.42 75.3228 1065.57 74.4528 1065.89 73.6728C1066.2 72.8808 1066.64 72.2028 1067.2 71.6388C1067.78 71.0628 1068.45 70.6188 1069.22 70.3068C1070 69.9948 1070.84 69.8388 1071.74 69.8388C1072.7 69.8388 1073.57 70.0068 1074.35 70.3428C1075.13 70.6788 1075.79 71.1588 1076.34 71.7828C1076.9 72.3948 1077.3 73.1268 1077.57 73.9788L1074.62 74.8968C1074.36 74.0808 1073.99 73.4988 1073.48 73.1508C1072.99 72.7908 1072.4 72.6108 1071.72 72.6108C1071.08 72.6108 1070.52 72.7608 1070.04 73.0608C1069.56 73.3608 1069.19 73.7868 1068.91 74.3388C1068.65 74.8908 1068.51 75.5388 1068.51 76.2828C1068.51 77.0268 1068.65 77.6748 1068.91 78.2268C1069.17 78.7788 1069.55 79.2108 1070.03 79.5228C1070.51 79.8228 1071.06 79.9728 1071.7 79.9728C1072.43 79.9728 1073.05 79.7808 1073.55 79.3968C1074.06 79.0128 1074.44 78.4368 1074.71 77.6688L1077.69 78.3708C1077.45 79.2708 1077.05 80.0508 1076.47 80.7108C1075.91 81.3588 1075.22 81.8568 1074.4 82.2048C1073.6 82.5528 1072.71 82.7268 1071.74 82.7268ZM1079.27 69.9648H1089.03V72.3948H1085.66V82.6008H1082.62V72.3948H1079.27V69.9648ZM1096.7 82.7268C1095.81 82.7268 1094.98 82.5708 1094.2 82.2588C1093.42 81.9348 1092.73 81.4848 1092.13 80.9088C1091.53 80.3328 1091.06 79.6548 1090.72 78.8748C1090.4 78.0828 1090.24 77.2188 1090.24 76.2828C1090.24 75.3348 1090.4 74.4708 1090.72 73.6908C1091.06 72.9108 1091.53 72.2328 1092.13 71.6568C1092.73 71.0808 1093.42 70.6368 1094.2 70.3248C1094.98 70.0008 1095.81 69.8388 1096.7 69.8388C1097.6 69.8388 1098.44 70.0008 1099.22 70.3248C1100 70.6368 1100.68 71.0808 1101.27 71.6568C1101.87 72.2328 1102.33 72.9108 1102.66 73.6908C1102.99 74.4708 1103.16 75.3348 1103.16 76.2828C1103.16 77.2188 1102.99 78.0828 1102.66 78.8748C1102.33 79.6548 1101.87 80.3328 1101.27 80.9088C1100.68 81.4848 1100 81.9348 1099.22 82.2588C1098.44 82.5708 1097.6 82.7268 1096.7 82.7268ZM1096.7 79.9548C1097.38 79.9548 1097.98 79.8048 1098.48 79.5048C1098.98 79.1928 1099.37 78.7608 1099.65 78.2088C1099.94 77.6568 1100.08 77.0148 1100.08 76.2828C1100.08 75.5268 1099.94 74.8788 1099.65 74.3388C1099.37 73.7868 1098.98 73.3608 1098.48 73.0608C1097.98 72.7608 1097.38 72.6108 1096.7 72.6108C1096.01 72.6108 1095.42 72.7608 1094.92 73.0608C1094.41 73.3608 1094.02 73.7868 1093.75 74.3388C1093.47 74.8788 1093.33 75.5268 1093.33 76.2828C1093.33 77.0148 1093.47 77.6568 1093.75 78.2088C1094.02 78.7608 1094.41 79.1928 1094.92 79.5048C1095.42 79.8048 1096.01 79.9548 1096.7 79.9548ZM1110.12 82.7268C1109.22 82.7268 1108.42 82.5768 1107.71 82.2768C1107 81.9648 1106.42 81.5328 1105.97 80.9808C1105.51 80.4168 1105.2 79.7628 1105.05 79.0188L1108.02 78.3528C1108.15 78.9408 1108.39 79.4028 1108.74 79.7388C1109.09 80.0748 1109.51 80.2428 1110 80.2428C1110.51 80.2428 1110.91 80.1348 1111.19 79.9188C1111.47 79.7028 1111.62 79.4148 1111.62 79.0548C1111.62 78.7308 1111.5 78.4668 1111.28 78.2628C1111.05 78.0468 1110.75 77.8668 1110.38 77.7228C1110 77.5788 1109.59 77.4348 1109.13 77.2908C1108.69 77.1468 1108.24 76.9848 1107.78 76.8048C1107.34 76.6248 1106.93 76.4028 1106.54 76.1388C1106.17 75.8628 1105.87 75.5208 1105.64 75.1128C1105.41 74.7048 1105.3 74.2008 1105.3 73.6008C1105.3 72.8088 1105.49 72.1308 1105.88 71.5668C1106.26 71.0028 1106.79 70.5768 1107.48 70.2888C1108.17 69.9888 1108.98 69.8388 1109.89 69.8388C1110.72 69.8388 1111.46 69.9768 1112.1 70.2528C1112.75 70.5288 1113.28 70.9128 1113.69 71.4048C1114.1 71.8848 1114.36 72.4548 1114.48 73.1148L1111.53 73.8888C1111.43 73.3728 1111.23 72.9828 1110.93 72.7188C1110.63 72.4428 1110.26 72.3048 1109.82 72.3048C1109.55 72.3048 1109.31 72.3528 1109.1 72.4488C1108.88 72.5328 1108.71 72.6588 1108.58 72.8268C1108.46 72.9948 1108.4 73.2048 1108.4 73.4568C1108.4 73.7688 1108.51 74.0268 1108.74 74.2308C1108.97 74.4348 1109.27 74.6148 1109.66 74.7708C1110.04 74.9148 1110.46 75.0588 1110.92 75.2028C1111.37 75.3348 1111.82 75.4908 1112.27 75.6708C1112.72 75.8508 1113.14 76.0788 1113.51 76.3548C1113.89 76.6188 1114.2 76.9548 1114.43 77.3628C1114.67 77.7588 1114.79 78.2568 1114.79 78.8568C1114.79 79.5648 1114.58 80.2128 1114.17 80.8008C1113.78 81.3768 1113.23 81.8448 1112.54 82.2048C1111.84 82.5528 1111.04 82.7268 1110.12 82.7268ZM947.021 93.9648H955.211V96.3948H950.063V99.1128H953.933V101.471H950.063V106.601H947.021V93.9648ZM957.347 106.601V93.9648H962.495C963.491 93.9648 964.331 94.1268 965.015 94.4508C965.699 94.7748 966.221 95.2308 966.581 95.8188C966.953 96.3948 967.139 97.0668 967.139 97.8348C967.139 98.6148 966.899 99.3048 966.419 99.9048C965.939 100.493 965.273 100.889 964.421 101.093C965.045 101.297 965.597 101.651 966.077 102.155C966.557 102.659 966.959 103.289 967.283 104.045C967.607 104.789 967.823 105.641 967.931 106.601H964.655C964.595 105.773 964.439 105.035 964.187 104.387C963.935 103.739 963.545 103.217 963.017 102.821C962.693 102.569 962.315 102.377 961.883 102.245C961.451 102.101 960.953 102.023 960.389 102.011V106.601H957.347ZM960.389 99.5808H962.315C962.879 99.5808 963.305 99.4308 963.593 99.1308C963.893 98.8188 964.043 98.4288 964.043 97.9608C964.043 97.5048 963.893 97.1388 963.593 96.8628C963.293 96.5748 962.867 96.4308 962.315 96.4308H960.389V99.5808ZM978.014 96.4128H973.334V99.0048H977.474V101.363H973.334V104.153H978.014V106.601H970.292V93.9648H978.014V96.4128ZM985.247 106.727C984.347 106.727 983.543 106.577 982.835 106.277C982.127 105.965 981.545 105.533 981.089 104.981C980.633 104.417 980.327 103.763 980.171 103.019L983.141 102.353C983.273 102.941 983.513 103.403 983.861 103.739C984.209 104.075 984.629 104.243 985.121 104.243C985.637 104.243 986.033 104.135 986.309 103.919C986.597 103.703 986.741 103.415 986.741 103.055C986.741 102.731 986.627 102.467 986.399 102.263C986.171 102.047 985.871 101.867 985.499 101.723C985.127 101.579 984.713 101.435 984.257 101.291C983.813 101.147 983.363 100.985 982.907 100.805C982.463 100.625 982.049 100.403 981.665 100.139C981.293 99.8628 980.993 99.5208 980.765 99.1128C980.537 98.7048 980.423 98.2008 980.423 97.6008C980.423 96.8088 980.615 96.1308 980.999 95.5668C981.383 95.0028 981.917 94.5768 982.601 94.2888C983.297 93.9888 984.101 93.8388 985.013 93.8388C985.841 93.8388 986.579 93.9768 987.227 94.2528C987.875 94.5288 988.403 94.9128 988.811 95.4048C989.219 95.8848 989.483 96.4548 989.603 97.1148L986.651 97.8888C986.555 97.3728 986.357 96.9828 986.057 96.7188C985.757 96.4428 985.385 96.3048 984.941 96.3048C984.677 96.3048 984.437 96.3528 984.221 96.4488C984.005 96.5328 983.831 96.6588 983.699 96.8268C983.579 96.9948 983.519 97.2048 983.519 97.4568C983.519 97.7688 983.633 98.0268 983.861 98.2308C984.089 98.4348 984.395 98.6148 984.779 98.7708C985.163 98.9148 985.583 99.0588 986.039 99.2028C986.495 99.3348 986.945 99.4908 987.389 99.6708C987.845 99.8508 988.259 100.079 988.631 100.355C989.015 100.619 989.321 100.955 989.549 101.363C989.789 101.759 989.909 102.257 989.909 102.857C989.909 103.565 989.705 104.213 989.297 104.801C988.901 105.377 988.355 105.845 987.659 106.205C986.963 106.553 986.159 106.727 985.247 106.727ZM998.112 106.727C997.188 106.727 996.336 106.571 995.556 106.259C994.788 105.935 994.122 105.485 993.558 104.909C992.994 104.321 992.556 103.637 992.244 102.857C991.944 102.077 991.794 101.219 991.794 100.283C991.794 99.3228 991.95 98.4528 992.262 97.6728C992.574 96.8808 993.012 96.2028 993.576 95.6388C994.152 95.0628 994.824 94.6188 995.592 94.3068C996.372 93.9948 997.212 93.8388 998.112 93.8388C999.072 93.8388 999.942 94.0068 1000.72 94.3428C1001.5 94.6788 1002.17 95.1588 1002.72 95.7828C1003.27 96.3948 1003.68 97.1268 1003.94 97.9788L1000.99 98.8968C1000.74 98.0808 1000.36 97.4988 999.858 97.1508C999.366 96.7908 998.778 96.6108 998.094 96.6108C997.458 96.6108 996.9 96.7608 996.42 97.0608C995.94 97.3608 995.562 97.7868 995.286 98.3388C995.022 98.8908 994.89 99.5388 994.89 100.283C994.89 101.027 995.022 101.675 995.286 102.227C995.55 102.779 995.922 103.211 996.402 103.523C996.882 103.823 997.44 103.973 998.076 103.973C998.808 103.973 999.426 103.781 999.93 103.397C1000.43 103.013 1000.82 102.437 1001.08 101.669L1004.07 102.371C1003.83 103.271 1003.42 104.051 1002.85 104.711C1002.28 105.359 1001.59 105.857 1000.78 106.205C999.972 106.553 999.084 106.727 998.112 106.727ZM1012.29 106.727C1011.4 106.727 1010.57 106.571 1009.79 106.259C1009.01 105.935 1008.32 105.485 1007.72 104.909C1007.12 104.333 1006.65 103.655 1006.32 102.875C1005.99 102.083 1005.83 101.219 1005.83 100.283C1005.83 99.3348 1005.99 98.4708 1006.32 97.6908C1006.65 96.9108 1007.12 96.2328 1007.72 95.6568C1008.32 95.0808 1009.01 94.6368 1009.79 94.3248C1010.57 94.0008 1011.4 93.8388 1012.29 93.8388C1013.19 93.8388 1014.03 94.0008 1014.81 94.3248C1015.59 94.6368 1016.28 95.0808 1016.86 95.6568C1017.46 96.2328 1017.93 96.9108 1018.25 97.6908C1018.59 98.4708 1018.75 99.3348 1018.75 100.283C1018.75 101.219 1018.59 102.083 1018.25 102.875C1017.93 103.655 1017.46 104.333 1016.86 104.909C1016.28 105.485 1015.59 105.935 1014.81 106.259C1014.03 106.571 1013.19 106.727 1012.29 106.727ZM1012.29 103.955C1012.98 103.955 1013.57 103.805 1014.07 103.505C1014.58 103.193 1014.97 102.761 1015.24 102.209C1015.53 101.657 1015.68 101.015 1015.68 100.283C1015.68 99.5268 1015.53 98.8788 1015.24 98.3388C1014.97 97.7868 1014.58 97.3608 1014.07 97.0608C1013.57 96.7608 1012.98 96.6108 1012.29 96.6108C1011.61 96.6108 1011.01 96.7608 1010.51 97.0608C1010.01 97.3608 1009.62 97.7868 1009.34 98.3388C1009.06 98.8788 1008.93 99.5268 1008.93 100.283C1008.93 101.015 1009.06 101.657 1009.34 102.209C1009.62 102.761 1010.01 103.193 1010.51 103.505C1011.01 103.805 1011.61 103.955 1012.29 103.955ZM1025.72 106.727C1024.82 106.727 1024.01 106.577 1023.31 106.277C1022.6 105.965 1022.02 105.533 1021.56 104.981C1021.1 104.417 1020.8 103.763 1020.64 103.019L1023.61 102.353C1023.74 102.941 1023.98 103.403 1024.33 103.739C1024.68 104.075 1025.1 104.243 1025.59 104.243C1026.11 104.243 1026.5 104.135 1026.78 103.919C1027.07 103.703 1027.21 103.415 1027.21 103.055C1027.21 102.731 1027.1 102.467 1026.87 102.263C1026.64 102.047 1026.34 101.867 1025.97 101.723C1025.6 101.579 1025.18 101.435 1024.73 101.291C1024.28 101.147 1023.83 100.985 1023.38 100.805C1022.93 100.625 1022.52 100.403 1022.14 100.139C1021.76 99.8628 1021.46 99.5208 1021.24 99.1128C1021.01 98.7048 1020.89 98.2008 1020.89 97.6008C1020.89 96.8088 1021.09 96.1308 1021.47 95.5668C1021.85 95.0028 1022.39 94.5768 1023.07 94.2888C1023.77 93.9888 1024.57 93.8388 1025.48 93.8388C1026.31 93.8388 1027.05 93.9768 1027.7 94.2528C1028.35 94.5288 1028.87 94.9128 1029.28 95.4048C1029.69 95.8848 1029.95 96.4548 1030.07 97.1148L1027.12 97.8888C1027.03 97.3728 1026.83 96.9828 1026.53 96.7188C1026.23 96.4428 1025.86 96.3048 1025.41 96.3048C1025.15 96.3048 1024.91 96.3528 1024.69 96.4488C1024.48 96.5328 1024.3 96.6588 1024.17 96.8268C1024.05 96.9948 1023.99 97.2048 1023.99 97.4568C1023.99 97.7688 1024.1 98.0268 1024.33 98.2308C1024.56 98.4348 1024.87 98.6148 1025.25 98.7708C1025.63 98.9148 1026.05 99.0588 1026.51 99.2028C1026.97 99.3348 1027.42 99.4908 1027.86 99.6708C1028.32 99.8508 1028.73 100.079 1029.1 100.355C1029.49 100.619 1029.79 100.955 1030.02 101.363C1030.26 101.759 1030.38 102.257 1030.38 102.857C1030.38 103.565 1030.18 104.213 1029.77 104.801C1029.37 105.377 1028.83 105.845 1028.13 106.205C1027.43 106.553 1026.63 106.727 1025.72 106.727ZM1036.15 93.9648H1039.58L1042.64 100.571H1041.46L1044.5 93.9648H1047.9L1043.54 102.407V106.601H1040.5V102.407L1036.15 93.9648ZM1054.01 106.601V93.9648H1058.73C1060.08 93.9648 1061.25 94.2348 1062.24 94.7748C1063.23 95.3028 1064 96.0408 1064.54 96.9888C1065.08 97.9248 1065.35 99.0288 1065.35 100.301C1065.35 101.537 1065.08 102.629 1064.54 103.577C1064 104.525 1063.23 105.269 1062.24 105.809C1061.25 106.337 1060.08 106.601 1058.73 106.601H1054.01ZM1057.05 103.973H1058.55C1059.72 103.973 1060.63 103.655 1061.28 103.019C1061.94 102.371 1062.27 101.465 1062.27 100.301C1062.27 99.1128 1061.94 98.1948 1061.28 97.5468C1060.63 96.8988 1059.72 96.5748 1058.55 96.5748H1057.05V103.973ZM1075.29 96.4128H1070.61V99.0048H1074.75V101.363H1070.61V104.153H1075.29V106.601H1067.57V93.9648H1075.29V96.4128ZM951.902 130.601V117.965H956.87C957.902 117.965 958.76 118.145 959.444 118.505C960.128 118.865 960.644 119.351 960.992 119.963C961.34 120.575 961.514 121.265 961.514 122.033C961.514 122.717 961.352 123.365 961.028 123.977C960.704 124.589 960.2 125.087 959.516 125.471C958.832 125.855 957.95 126.047 956.87 126.047H954.944V130.601H951.902ZM954.944 123.617H956.636C957.26 123.617 957.71 123.473 957.986 123.185C958.262 122.897 958.4 122.513 958.4 122.033C958.4 121.541 958.262 121.151 957.986 120.863C957.71 120.575 957.26 120.431 956.636 120.431H954.944V123.617ZM963.599 130.601V117.965H968.747C969.743 117.965 970.583 118.127 971.267 118.451C971.951 118.775 972.473 119.231 972.833 119.819C973.205 120.395 973.391 121.067 973.391 121.835C973.391 122.615 973.151 123.305 972.671 123.905C972.191 124.493 971.525 124.889 970.673 125.093C971.297 125.297 971.849 125.651 972.329 126.155C972.809 126.659 973.211 127.289 973.535 128.045C973.859 128.789 974.075 129.641 974.183 130.601H970.907C970.847 129.773 970.691 129.035 970.439 128.387C970.187 127.739 969.797 127.217 969.269 126.821C968.945 126.569 968.567 126.377 968.135 126.245C967.703 126.101 967.205 126.023 966.641 126.011V130.601H963.599ZM966.641 123.581H968.567C969.131 123.581 969.557 123.431 969.845 123.131C970.145 122.819 970.295 122.429 970.295 121.961C970.295 121.505 970.145 121.139 969.845 120.863C969.545 120.575 969.119 120.431 968.567 120.431H966.641V123.581ZM981.957 130.727C981.069 130.727 980.235 130.571 979.455 130.259C978.675 129.935 977.985 129.485 977.385 128.909C976.785 128.333 976.317 127.655 975.981 126.875C975.657 126.083 975.495 125.219 975.495 124.283C975.495 123.335 975.657 122.471 975.981 121.691C976.317 120.911 976.785 120.233 977.385 119.657C977.985 119.081 978.675 118.637 979.455 118.325C980.235 118.001 981.069 117.839 981.957 117.839C982.857 117.839 983.697 118.001 984.477 118.325C985.257 118.637 985.941 119.081 986.529 119.657C987.129 120.233 987.591 120.911 987.915 121.691C988.251 122.471 988.419 123.335 988.419 124.283C988.419 125.219 988.251 126.083 987.915 126.875C987.591 127.655 987.129 128.333 986.529 128.909C985.941 129.485 985.257 129.935 984.477 130.259C983.697 130.571 982.857 130.727 981.957 130.727ZM981.957 127.955C982.641 127.955 983.235 127.805 983.739 127.505C984.243 127.193 984.633 126.761 984.909 126.209C985.197 125.657 985.341 125.015 985.341 124.283C985.341 123.527 985.197 122.879 984.909 122.339C984.633 121.787 984.243 121.361 983.739 121.061C983.235 120.761 982.641 120.611 981.957 120.611C981.273 120.611 980.679 120.761 980.175 121.061C979.671 121.361 979.281 121.787 979.005 122.339C978.729 122.879 978.591 123.527 978.591 124.283C978.591 125.015 978.729 125.657 979.005 126.209C979.281 126.761 979.671 127.193 980.175 127.505C980.679 127.805 981.273 127.955 981.957 127.955ZM989.21 117.965H992.738L1001.16 130.601H997.616L989.21 117.965ZM995.546 125.813L992.738 130.601H989.3L993.818 123.455L995.546 125.813ZM994.754 122.753L997.544 117.965H1000.98L996.482 125.111L994.754 122.753ZM1003.15 130.601V128.171H1004.54V120.395H1003.15V117.965H1008.97V120.395H1007.58V128.171H1008.97V130.601H1003.15ZM1011.65 117.965H1015.24L1019.41 128.225L1018.17 128.405L1022.36 117.965H1025.93V130.601H1022.89V120.143L1023.89 120.305L1020.02 130.601H1017.58L1013.71 120.305L1014.7 120.143V130.601H1011.65V117.965ZM1028.61 130.601V128.171H1029.99V120.395H1028.61V117.965H1034.42V120.395H1033.03V128.171H1034.42V130.601H1028.61ZM1037.1 130.601V117.965H1041.82C1043.18 117.965 1044.35 118.235 1045.33 118.775C1046.33 119.303 1047.09 120.041 1047.63 120.989C1048.17 121.925 1048.44 123.029 1048.44 124.301C1048.44 125.537 1048.17 126.629 1047.63 127.577C1047.09 128.525 1046.33 129.269 1045.33 129.809C1044.35 130.337 1043.18 130.601 1041.82 130.601H1037.1ZM1040.15 127.973H1041.64C1042.82 127.973 1043.73 127.655 1044.38 127.019C1045.04 126.371 1045.37 125.465 1045.37 124.301C1045.37 123.113 1045.04 122.195 1044.38 121.547C1043.73 120.899 1042.82 120.575 1041.64 120.575H1040.15V127.973ZM1057.22 117.965L1061.77 130.601H1058.57L1054.86 119.567H1056.05L1052.32 130.601H1049.13L1053.71 117.965H1057.22ZM1051.85 126.011H1058.76L1059.54 128.369H1051.1L1051.85 126.011ZM1063.7 130.601V117.965H1068.41C1069.77 117.965 1070.94 118.235 1071.92 118.775C1072.92 119.303 1073.69 120.041 1074.23 120.989C1074.77 121.925 1075.04 123.029 1075.04 124.301C1075.04 125.537 1074.77 126.629 1074.23 127.577C1073.69 128.525 1072.92 129.269 1071.92 129.809C1070.94 130.337 1069.77 130.601 1068.41 130.601H1063.7ZM1066.74 127.973H1068.23C1069.41 127.973 1070.32 127.655 1070.97 127.019C1071.63 126.371 1071.96 125.465 1071.96 124.301C1071.96 123.113 1071.63 122.195 1070.97 121.547C1070.32 120.899 1069.41 120.575 1068.23 120.575H1066.74V127.973Z" fill="white"/>
<rect x="1105.29" width="125.615" height="60.6416" rx="30.3208" transform="rotate(14.6055 1105.29 0)" fill="#EFA3C2"/>
<rect x="1109.17" y="6.60465" width="114.786" height="49.8128" rx="24.9064" transform="rotate(14.6055 1109.17 6.60465)" stroke="#ED5835" stroke-width="2.16577"/>
<path d="M1197.52 49.7796L1197.79 48.6947L1194.55 47.8766C1192.81 47.4384 1190.97 47.6159 1189.35 48.3765C1188.4 48.8224 1187.55 49.4574 1186.86 50.2294C1185.28 48.1324 1183.43 46.0463 1181.46 44.3571L1184.61 38.4444L1181.07 37.5498C1178.09 36.7981 1174.97 37.8788 1173.08 40.252C1170.04 39.9023 1166.85 40.7618 1163.77 42.7796C1161.11 44.5175 1159.47 46.4949 1159.4 46.5783L1159.01 47.0552L1159.2 47.643C1159.23 47.7271 1159.9 49.7294 1161.58 51.9815C1163.57 54.6597 1166.17 56.5734 1169.14 57.5669C1169.69 59.0393 1170.56 60.379 1171.7 61.4688C1172.99 62.7131 1174.6 63.6031 1176.34 64.0426L1177.84 64.421L1177.38 58.306C1179.9 58.0712 1182.52 57.4971 1184.95 56.7605C1185.16 57.9813 1185.65 59.1505 1186.39 60.1535C1187.46 61.5924 1189 62.6261 1190.73 63.0643L1193.97 63.8825L1194.25 62.7976C1194.94 60.0387 1194.08 57.2468 1192.21 55.3621C1194.74 54.5868 1196.82 52.5384 1197.52 49.7796ZM1180.52 39.7194L1181.3 39.9156L1179.67 42.9683C1178.31 42.0132 1176.96 41.3008 1175.61 40.8359C1176.96 39.7217 1178.78 39.2778 1180.52 39.7194ZM1161.55 47.5257C1162.66 46.3488 1165.84 43.3556 1169.86 42.5907C1170.55 44.6914 1170.6 47.2472 1169.97 49.7437C1169.52 51.5366 1168.76 53.1771 1167.76 54.5398C1164.93 52.9929 1162.75 50.3052 1161.55 47.5257ZM1175.37 61.325C1173.95 60.6436 1172.75 59.5586 1171.93 58.2191C1172.95 58.3667 1174.02 58.4348 1175.16 58.4236L1175.37 61.325ZM1170.76 55.7132C1170.46 55.635 1170.15 55.5456 1169.85 55.4463C1170.87 53.9393 1171.65 52.1835 1172.13 50.2891C1172.8 47.5921 1172.8 44.8078 1172.14 42.4185C1172.76 42.4447 1173.39 42.5327 1174.04 42.6952C1179.81 44.1549 1184.86 51.0924 1186.66 53.8297C1183.81 54.8762 1176.52 57.1675 1170.76 55.7132ZM1192.25 61.1399L1191.28 60.8946C1189 60.3198 1187.34 58.3459 1187.1 56.0505C1187.67 55.8482 1188.1 55.6775 1188.39 55.5624C1190.8 56.3368 1192.37 58.6546 1192.25 61.1399ZM1189.03 53.3845C1188.84 53.086 1188.56 52.6461 1188.2 52.1066C1189.52 50.3481 1191.82 49.4942 1194 50.0463L1194.98 50.2916C1193.92 52.5088 1191.49 53.8046 1189.03 53.3845Z" fill="#ED5835"/>
<path d="M1166.52 45.3394L1168.69 45.8844L1168.14 48.0479L1165.98 47.5029L1166.52 45.3394Z" fill="#ED5835"/>
<path d="M1176.17 47.8594L1175.63 50.0171C1176.22 50.1666 1176.59 50.7723 1176.44 51.3672C1176.29 51.962 1175.68 52.3243 1175.08 52.1748L1174.53 54.3325C1176.33 54.7811 1178.16 53.6943 1178.61 51.9096C1179.06 50.125 1177.97 48.3081 1176.17 47.8594Z" fill="#ED5835"/>
<path d="M1152.58 28.7L1152.82 27.7745L1151.08 27.3426L1150.85 28.2682C1150.3 30.4512 1148.25 31.8688 1146.08 31.6889L1127.34 27.0183C1125.34 26.1588 1124.2 23.9451 1124.75 21.7621L1124.98 20.8366L1123.25 20.4048L1123.01 21.3303C1122.53 23.2855 1123.01 25.2588 1124.15 26.7381C1122.58 27.1136 1121.26 28.3316 1120.84 30.0072L1120.18 32.6681L1122.83 33.3302C1123.93 33.6027 1125.03 33.443 1125.96 32.9615L1123.43 45.7934C1122.79 49.0665 1124.81 52.2611 1128.04 53.0664L1133.18 54.347C1136.41 55.1523 1139.71 53.2836 1140.68 50.0929L1144.5 37.5834C1145.1 38.4454 1145.99 39.1032 1147.09 39.3757L1149.74 40.0378L1150.41 37.3769C1150.83 35.7013 1150.24 34.0078 1149.03 32.9385C1150.74 32.1707 1152.09 30.6552 1152.58 28.7ZM1126.52 29.6395C1126.16 31.0748 1124.7 31.952 1123.27 31.5948L1122.34 31.3645L1122.57 30.439C1122.93 29.0037 1124.39 28.1265 1125.82 28.4837L1126.75 28.714L1126.52 29.6395ZM1138.97 49.573C1138.28 51.8521 1135.92 53.1868 1133.62 52.6116L1128.48 51.331C1126.17 50.7558 1124.72 48.4739 1125.18 46.136L1125.49 44.5965C1127.77 43.1096 1130.57 42.634 1133.22 43.2944C1135.87 43.9549 1138.12 45.6874 1139.43 48.0722L1138.97 49.573ZM1140.11 45.8413C1138.53 43.7298 1136.26 42.2073 1133.66 41.5591C1131.05 40.9108 1128.33 41.189 1125.94 42.3082L1128.53 29.1571L1144.03 33.0208L1140.11 45.8413ZM1148.68 36.9451L1148.45 37.8706L1147.52 37.6403C1146.09 37.2831 1145.22 35.8248 1145.58 34.3895L1145.81 33.464L1146.73 33.6943C1148.16 34.0514 1149.04 35.5097 1148.68 36.9451Z" fill="#ED5835"/>
<path d="M1128.54 49.3942C1129.18 49.5532 1129.82 49.1641 1129.98 48.5252C1130.14 47.8862 1129.76 47.2393 1129.12 47.0804C1128.48 46.9214 1127.83 47.3104 1127.67 47.9494C1127.51 48.5883 1127.9 49.2352 1128.54 49.3942Z" fill="#ED5835"/>
<path d="M1128.54 49.3942C1129.18 49.5532 1129.82 49.1641 1129.98 48.5252C1130.14 47.8862 1129.76 47.2393 1129.12 47.0804C1128.48 46.9214 1127.83 47.3104 1127.67 47.9494C1127.51 48.5883 1127.9 49.2352 1128.54 49.3942Z" stroke="#ED5835"/>
<path d="M1134.27 50.8874C1134.91 51.0463 1135.55 50.6573 1135.71 50.0183C1135.87 49.3794 1135.49 48.7325 1134.85 48.5735C1134.21 48.4145 1133.56 48.8036 1133.4 49.4426C1133.24 50.0815 1133.63 50.7284 1134.27 50.8874Z" fill="#ED5835"/>
<path d="M1134.27 50.8874C1134.91 51.0463 1135.55 50.6573 1135.71 50.0183C1135.87 49.3794 1135.49 48.7325 1134.85 48.5735C1134.21 48.4145 1133.56 48.8036 1133.4 49.4426C1133.24 50.0815 1133.63 50.7284 1134.27 50.8874Z" stroke="#ED5835"/>
<path d="M1129.9 37.141C1130.53 37.3 1131.18 36.9109 1131.34 36.272C1131.5 35.633 1131.11 34.9862 1130.48 34.8272C1129.84 34.6682 1129.19 35.0573 1129.03 35.6962C1128.87 36.3352 1129.26 36.982 1129.9 37.141Z" fill="#ED5835"/>
<path d="M1129.9 37.141C1130.53 37.3 1131.18 36.9109 1131.34 36.272C1131.5 35.633 1131.11 34.9862 1130.48 34.8272C1129.84 34.6682 1129.19 35.0573 1129.03 35.6962C1128.87 36.3352 1129.26 36.982 1129.9 37.141Z" stroke="#ED5835"/>
<path d="M1139.07 39.5302C1139.7 39.6892 1140.35 39.3001 1140.51 38.6611C1140.67 38.0222 1140.28 37.3753 1139.64 37.2163C1139.01 37.0574 1138.36 37.4464 1138.2 38.0854C1138.04 38.7243 1138.43 39.3712 1139.07 39.5302Z" fill="#ED5835"/>
<path d="M1139.07 39.5302C1139.7 39.6892 1140.35 39.3001 1140.51 38.6611C1140.67 38.0222 1140.28 37.3753 1139.64 37.2163C1139.01 37.0574 1138.36 37.4464 1138.2 38.0854C1138.04 38.7243 1138.43 39.3712 1139.07 39.5302Z" stroke="#ED5835"/>
<path fill-rule="evenodd" clip-rule="evenodd" d="M1156.12 89.7587C1160.34 90.8897 1164.68 88.3849 1165.81 84.1641C1166.94 79.9434 1164.43 75.6049 1160.21 74.474L1160.21 74.4739L1163.28 63.0104L1233.02 81.6962L1229.95 93.1597C1225.73 92.0289 1221.39 94.5337 1220.26 98.7544C1219.13 102.975 1221.63 107.313 1225.85 108.444L1222.87 119.59L1153.13 100.904L1156.12 89.7587L1156.12 89.7587Z" fill="#66C3A2"/>
<rect x="1185.92" y="84.911" width="18.3551" height="13.4604" rx="3.05918" transform="rotate(15 1185.92 84.911)" stroke="#2E2E2E" stroke-width="1.22367"/>
<rect x="1185.92" y="84.911" width="18.3551" height="11.0131" rx="3.05918" transform="rotate(15 1185.92 84.911)" stroke="#2E2E2E" stroke-width="1.22367"/>
<rect x="0.749344" y="-0.432634" width="11.0131" height="4.89469" transform="matrix(0.965926 0.258819 0.258819 -0.965926 1188.85 85.2492)" stroke="#2E2E2E" stroke-width="1.22367"/>
<line x1="1188.32" y1="83.022" x2="1202.51" y2="86.8226" stroke="#2E2E2E" stroke-width="1.22367"/>
<defs>
<clipPath id="clip0_334_8154">
<rect width="30.2362" height="30.2362" fill="white" transform="translate(59.5098 32.677) rotate(7.96521)"/>
</clipPath>
<clipPath id="clip1_334_8154">
<rect width="19.4553" height="19.4553" fill="white" transform="translate(27.1475 82.479) rotate(-9.92479)"/>
</clipPath>
</defs>
</svg>
