<svg width="108" height="36" viewBox="0 0 108 36" fill="none" xmlns="http://www.w3.org/2000/svg">
<g clip-path="url(#clip0_192_9400)">
<path d="M7.27132 6.48213V12.1007C7.27132 12.9536 7.60297 13.6146 8.87607 13.6146C9.70698 13.6146 10.2312 13.341 10.9765 12.8719V16.646C10.2847 17.0867 9.28974 17.3354 7.99167 17.3354C3.34859 17.3354 2.84933 14.1406 2.84933 12.1007V6.48213H0V2.7613H2.84576V0H7.26775V2.7613H11.2761V6.47858H7.26775L7.27132 6.48213Z" fill="black"/>
<path d="M27.0632 12.3208C26.2323 15.3522 23.5541 17.3352 19.7669 17.3352C15.2058 17.3352 12.2495 14.414 12.2495 10.0073C12.2495 5.60056 15.2593 2.67578 19.7348 2.67578C24.9057 2.67578 28.026 6.56009 26.4248 10.9668H16.889C17.1672 12.6477 18.1336 13.6108 19.8739 13.6108C21.0364 13.6108 21.8638 13.1702 22.2774 12.3172H27.0596L27.0632 12.3208ZM16.9461 8.4898H22.0884C22.2275 7.16779 21.3966 6.25801 19.7384 6.25801C18.2727 6.25801 17.3063 7.00076 16.9461 8.4898Z" fill="black"/>
<path d="M41.16 7.27795C41.16 8.51823 40.8568 9.78338 40.3291 10.8602H35.768C36.3207 9.84024 36.6524 8.9589 36.6524 8.13442C36.6524 7.08605 36.1282 6.40016 35.2687 6.40016C34.0527 6.40016 33.1398 7.83235 33.1398 10.0641V16.8945H28.7178V3.11645H33.1398V5.37667C33.8031 3.69572 35.2117 2.67578 37.091 2.67578C39.5231 2.67578 41.1528 4.43847 41.1528 7.27795H41.16Z" fill="black"/>
<path d="M54.9788 7.27795C54.9788 8.51823 54.6757 9.78338 54.1479 10.8602H49.5868C50.1396 9.84024 50.4712 8.9589 50.4712 8.13442C50.4712 7.08605 49.947 6.40016 49.0876 6.40016C47.8715 6.40016 46.9586 7.83235 46.9586 10.0641V16.8945H42.5366V3.11645H46.9586V5.37667C47.6219 3.69572 49.0305 2.67578 50.9099 2.67578C53.342 2.67578 54.9717 4.43847 54.9717 7.27795H54.9788Z" fill="black"/>
<path d="M69.2149 9.12237V16.891H65.3457V14.549C64.3222 16.3686 62.6355 17.3317 60.3424 17.3317C57.2185 17.3317 55.5317 15.5121 55.5317 13.1986C55.5317 10.3875 58.0209 8.73501 61.9722 8.73501C62.9671 8.73501 63.9621 8.84518 64.793 8.98378C64.7644 7.44143 64.1582 6.33975 62.4714 6.33975C61.3374 6.33975 60.7026 6.83728 60.8417 7.7435H56.5017C55.7814 4.49177 58.7947 2.67578 62.5285 2.67578C66.9505 2.67578 69.2185 5.15633 69.2185 9.12237H69.2149ZM64.875 11.905C64.0441 11.6562 63.0777 11.5745 62.3858 11.5745C60.535 11.5745 59.8967 12.0969 59.8967 12.9249C59.8967 13.753 60.5065 14.1084 61.4729 14.1084C62.9386 14.1084 64.1832 13.2554 64.8714 11.905H64.875Z" fill="black"/>
<path d="M33.8604 27.2647V35.5557H29.4384V27.2647C29.4384 25.9426 28.8286 25.0329 27.7801 25.0329C26.343 25.0329 25.3195 26.465 25.3195 28.64V35.5557H20.8975V27.2647C20.8975 25.8325 20.2877 24.8943 19.1822 24.8943C17.7985 24.8943 16.6681 26.3549 16.6681 28.7217V35.5521H12.2461V21.7776H16.6681V24.2013C17.4134 22.4386 19.1002 21.3369 21.0366 21.3369C22.973 21.3369 24.5742 22.467 25.1555 24.1728C25.8473 22.4386 27.3379 21.3369 29.4419 21.3369C32.3162 21.3369 33.8639 23.4585 33.8639 27.2611L33.8604 27.2647Z" fill="black"/>
<path d="M49.0626 27.7908V35.5594H45.1934V33.2175C44.1699 35.037 42.4831 36.0001 40.1901 36.0001C37.0662 36.0001 35.3794 34.1806 35.3794 31.867C35.3794 29.056 37.8685 27.4035 41.8198 27.4035C42.8148 27.4035 43.8097 27.5136 44.6406 27.6522C44.6121 26.1099 44.0058 25.0082 42.3191 25.0082C41.185 25.0082 40.5503 25.5057 40.6894 26.412H36.3494C35.629 23.1602 38.6424 21.3442 42.3761 21.3442C46.7981 21.3442 49.0662 23.8248 49.0662 27.7908H49.0626ZM44.7226 30.5735C43.8917 30.3247 42.9253 30.243 42.2335 30.243C40.3827 30.243 39.7443 30.7654 39.7443 31.5934C39.7443 32.4214 40.3541 32.7768 41.3206 32.7768C42.7862 32.7768 44.0308 31.9239 44.7191 30.5735H44.7226Z" fill="black"/>
<path d="M63.5731 25.9429C63.5731 27.1831 63.2699 28.4483 62.7421 29.5251H58.1811C58.7338 28.5051 59.0655 27.6238 59.0655 26.7993C59.0655 25.751 58.5413 25.0651 57.6818 25.0651C56.4658 25.0651 55.5528 26.4972 55.5528 28.729V35.5594H51.1309V21.7849H55.5528V24.0451C56.2161 22.3642 57.6248 21.3442 59.5041 21.3442C61.9362 21.3442 63.5659 23.1069 63.5659 25.9464L63.5731 25.9429Z" fill="black"/>
<path d="M79.6885 35.5593H74.4927C74.2716 33.2742 73.0555 31.8953 71.5078 31.4262V28.8106C73.084 28.8106 74.079 27.9009 74.079 26.689C74.079 25.6691 73.3586 25.0649 72.2282 25.0649C70.5414 25.0649 69.2184 26.4438 69.2184 28.7289V35.5593H65.3491V16.2764H69.2184V24.1836C69.9387 22.4209 71.786 21.3476 74.079 21.3476C76.9818 21.3476 78.6401 23.057 78.6401 25.6726C78.6401 27.7125 77.6166 29.3366 75.9048 30.2179C77.7842 31.2094 79.1393 33.0823 79.6921 35.5628L79.6885 35.5593Z" fill="black"/>
<path d="M94.9196 30.9857C94.0887 34.0171 91.4106 36.0001 87.6233 36.0001C83.0623 36.0001 80.106 33.0789 80.106 28.6722C80.106 24.2655 83.1193 21.3442 87.5984 21.3442C92.7692 21.3442 95.8896 25.2285 94.2884 29.6353H84.7526C85.0308 31.3162 85.9972 32.2793 87.7375 32.2793C88.9 32.2793 89.7273 31.8386 90.141 30.9857H94.9232H94.9196ZM84.8025 27.1547H89.9449C90.084 25.8327 89.2531 24.9229 87.5948 24.9229C86.1291 24.9229 85.1627 25.6657 84.8025 27.1547Z" fill="black"/>
<path d="M102.605 25.5021V30.7653C102.605 31.6182 102.936 32.2792 104.209 32.2792C105.04 32.2792 105.565 32.0056 106.31 31.5365V35.3106C105.618 35.7513 104.623 36 103.325 36C98.6819 36 98.1827 32.8052 98.1827 30.7653V25.5021H95.3369V21.7848H98.1827V19.3789H102.605V21.7848H106.613V25.5021H102.605Z" fill="black"/>
<path d="M95.9712 2.67578H106.912C107.511 2.67578 108 3.1591 108 3.75969V11.2475C108 14.517 105.336 17.1717 102.055 17.1717H101.919C98.6386 17.1717 95.9748 14.517 95.9748 11.2475V2.67578H95.9712Z" fill="#FFAD21"/>
<path d="M83.9463 2.67578H95.9712V11.2475C95.9712 14.517 93.3074 17.1717 90.0265 17.1717H89.891C86.6102 17.1717 83.9463 14.517 83.9463 11.2475V2.67578Z" fill="#F65636"/>
<path d="M73.0055 2.67578H83.9463V11.2475C83.9463 14.517 81.2825 17.1717 78.0016 17.1717H77.8661C74.5853 17.1717 71.9214 14.517 71.9214 11.2475V3.75969C71.9214 3.16265 72.4064 2.67578 73.0091 2.67578H73.0055Z" fill="#FFAD21"/>
</g>
<defs>
<clipPath id="clip0_192_9400">
<rect width="108" height="36" fill="white"/>
</clipPath>
</defs>
</svg>
