<svg width="360" height="120" viewBox="0 0 360 120" fill="none" xmlns="http://www.w3.org/2000/svg">
<g clip-path="url(#clip0_43_855)">
<path d="M24.2377 21.6071V40.3356C24.2377 43.1787 25.3432 45.382 29.5869 45.382C32.3566 45.382 34.104 44.4699 36.5884 42.9062V55.4867C34.2823 56.9556 30.9658 57.7848 26.6389 57.7848C11.162 57.7848 9.49777 47.1352 9.49777 40.3356V21.6071H0V9.20434H9.48588V0H24.2259V9.20434H37.5869V21.5953H24.2259L24.2377 21.6071Z" fill="white"/>
<path d="M90.2109 41.0701C87.4412 51.1747 78.5141 57.7848 65.89 57.7848C50.6864 57.7848 40.832 48.0474 40.832 33.3583C40.832 18.6693 50.8647 8.92004 65.783 8.92004C83.0193 8.92004 93.4204 21.8677 88.0831 36.5568H56.2971C57.2243 42.1599 60.4457 45.3702 66.2466 45.3702C70.1218 45.3702 72.8796 43.9013 74.2585 41.0582H90.199L90.2109 41.0701ZM56.4873 28.3001H73.6285C74.0921 23.8934 71.3224 20.8608 65.7949 20.8608C60.9093 20.8608 57.6879 23.3366 56.4873 28.3001Z" fill="white"/>
<path d="M137.201 24.2606C137.201 28.3949 136.19 32.612 134.431 36.2014H119.227C121.07 32.8016 122.175 29.8638 122.175 27.1155C122.175 23.6209 120.428 21.3347 117.563 21.3347C113.51 21.3347 110.467 26.1086 110.467 33.5479V56.3159H95.7267V10.3889H110.467V17.923C112.678 12.3198 117.373 8.92004 123.638 8.92004C131.745 8.92004 137.177 14.7957 137.177 24.2606H137.201Z" fill="white"/>
<path d="M183.263 24.2606C183.263 28.3949 182.253 32.612 180.493 36.2014H165.29C167.132 32.8016 168.238 29.8638 168.238 27.1155C168.238 23.6209 166.49 21.3347 163.626 21.3347C159.572 21.3347 156.529 26.1086 156.529 33.5479V56.3159H141.789V10.3889H156.529V17.923C158.74 12.3198 163.435 8.92004 169.7 8.92004C177.807 8.92004 183.239 14.7957 183.239 24.2606H183.263Z" fill="white"/>
<path d="M230.716 30.4087V56.304H217.819V48.4975C214.407 54.5627 208.785 57.773 201.141 57.773C190.728 57.773 185.105 51.7078 185.105 43.9961C185.105 34.6259 193.403 29.1175 206.574 29.1175C209.89 29.1175 213.207 29.4847 215.976 29.9467C215.881 24.8055 213.86 21.1333 208.238 21.1333C204.458 21.1333 202.342 22.7917 202.805 25.8124H188.339C185.938 14.9734 195.982 8.92004 208.428 8.92004C223.168 8.92004 230.728 17.1886 230.728 30.4087H230.716ZM216.25 39.6841C213.48 38.8549 210.259 38.5824 207.952 38.5824C201.783 38.5824 199.655 40.3238 199.655 43.0839C199.655 45.844 201.688 47.0286 204.909 47.0286C209.795 47.0286 213.944 44.1856 216.238 39.6841H216.25Z" fill="white"/>
<path d="M112.868 90.8825V118.519H98.1278V90.8825C98.1278 86.4758 96.0951 83.4433 92.6003 83.4433C87.8098 83.4433 84.3982 88.2172 84.3982 95.4669V118.519H69.6582V90.8825C69.6582 86.1086 67.6255 82.9813 63.9405 82.9813C59.3284 82.9813 55.5602 87.85 55.5602 95.7394V118.507H40.8202V72.5923H55.5602V80.6713C58.0446 74.7957 63.6671 71.1234 70.1218 71.1234C76.5765 71.1234 81.9138 74.8904 83.8514 80.5765C86.1575 74.7957 91.1263 71.1234 98.1396 71.1234C107.721 71.1234 112.88 78.1955 112.88 90.8707L112.868 90.8825Z" fill="white"/>
<path d="M163.542 92.6357V118.531H150.645V110.725C147.233 116.79 141.611 120 133.967 120C123.554 120 117.932 113.935 117.932 106.223C117.932 96.8529 126.229 91.3445 139.4 91.3445C142.716 91.3445 146.033 91.7117 148.802 92.1737C148.707 87.0326 146.686 83.3603 141.064 83.3603C137.284 83.3603 135.168 85.0188 135.631 88.0395H121.165C118.764 77.2004 128.808 71.1471 141.254 71.1471C155.994 71.1471 163.554 79.4156 163.554 92.6357H163.542ZM149.076 101.911C146.306 101.082 143.085 100.809 140.779 100.809C134.609 100.809 132.481 102.551 132.481 105.311C132.481 108.071 134.514 109.256 137.736 109.256C142.621 109.256 146.77 106.413 149.064 101.911H149.076Z" fill="white"/>
<path d="M211.911 86.4758C211.911 90.6101 210.9 94.8273 209.141 98.4166H193.938C195.78 95.0168 196.886 92.079 196.886 89.3307C196.886 85.8361 195.138 83.5499 192.273 83.5499C188.22 83.5499 185.177 88.3238 185.177 95.7631V118.531H170.437V72.616H185.177V80.1501C187.388 74.5469 192.083 71.1471 198.348 71.1471C206.455 71.1471 211.887 77.0227 211.887 86.4877L211.911 86.4758Z" fill="white"/>
<path d="M265.628 118.531H248.309C247.572 110.914 243.519 106.318 238.36 104.754V96.0355C243.614 96.0355 246.93 93.003 246.93 88.9635C246.93 85.5637 244.529 83.5499 240.761 83.5499C235.138 83.5499 230.728 88.1461 230.728 95.7631V118.531H217.831V54.2547H230.728V80.6121C233.129 74.7364 239.287 71.1589 246.93 71.1589C256.606 71.1589 262.134 76.8569 262.134 85.5755C262.134 92.3751 258.722 97.7888 253.016 100.727C259.281 104.032 263.798 110.274 265.64 118.543L265.628 118.531Z" fill="white"/>
<path d="M316.398 103.285C313.629 113.39 304.701 120 292.077 120C276.874 120 267.019 110.263 267.019 95.5735C267.019 80.8845 277.064 71.1471 291.994 71.1471C309.23 71.1471 319.631 84.0948 314.294 98.7838H282.508C283.435 104.387 286.657 107.597 292.458 107.597C296.333 107.597 299.091 106.128 300.47 103.285H316.41H316.398ZM282.675 90.5153H299.816C300.279 86.1086 297.51 83.076 291.982 83.076C287.097 83.076 283.875 85.5518 282.675 90.5153Z" fill="white"/>
<path d="M342.015 85.0069V102.551C342.015 105.394 343.12 107.597 347.364 107.597C350.134 107.597 351.881 106.685 354.365 105.121V117.702C352.059 119.171 348.743 120 344.416 120C328.939 120 327.275 109.35 327.275 102.551V85.0069H317.789V72.616H327.275V64.5963H342.015V72.616H355.376V85.0069H342.015Z" fill="white"/>
<path d="M319.905 8.92004H356.374C358.371 8.92004 360 10.5311 360 12.5331V37.4926C360 48.3909 351.12 57.2399 340.184 57.2399H339.733C328.796 57.2399 319.917 48.3909 319.917 37.4926V8.92004H319.905Z" fill="white"/>
<path d="M279.822 8.92004H319.905V37.4926C319.905 48.3909 311.025 57.2399 300.089 57.2399H299.638C288.701 57.2399 279.822 48.3909 279.822 37.4926V8.92004Z" fill="white"/>
<path d="M243.352 8.92004H279.822V37.4926C279.822 48.3909 270.942 57.2399 260.006 57.2399H259.554C248.618 57.2399 239.738 48.3909 239.738 37.4926V12.5331C239.738 10.5429 241.355 8.92004 243.364 8.92004H243.352Z" fill="white"/>
</g>
<defs>
<clipPath id="clip0_43_855">
<rect width="360" height="120" fill="white"/>
</clipPath>
</defs>
</svg>
