<svg width="131" height="44" viewBox="0 0 131 44" fill="none" xmlns="http://www.w3.org/2000/svg">
<g id="Capa_1" clip-path="url(#clip0_736_6226)">
<g id="Group">
<path id="Vector" d="M8.81984 7.86259V14.6777C8.81984 15.7122 9.22212 16.514 10.7664 16.514C11.7742 16.514 12.4101 16.1821 13.3141 15.6131V20.191C12.475 20.7255 11.2681 21.0272 9.69361 21.0272C4.06171 21.0272 3.45613 17.152 3.45613 14.6777V7.86259H0V3.34936H3.45181V0H8.81552V3.34936H13.6775V7.85828H8.81552L8.81984 7.86259Z" fill="black"/>
<path id="Vector_2" d="M32.8259 14.9449C31.818 18.6219 28.5695 21.0272 23.9757 21.0272C18.4433 21.0272 14.8574 17.4839 14.8574 12.1387C14.8574 6.7935 18.5082 3.24585 23.9368 3.24585C30.2089 3.24585 33.9938 7.95737 32.0516 13.3025H20.485C20.8224 15.3415 21.9946 16.5097 24.1055 16.5097C25.5156 16.5097 26.5192 15.9751 27.0209 14.9406H32.8215L32.8259 14.9449ZM20.5542 10.298H26.7917C26.9604 8.69448 25.9525 7.59096 23.9411 7.59096C22.1633 7.59096 20.9911 8.49188 20.5542 10.298Z" fill="black"/>
<path id="Vector_3" d="M49.9259 8.82811C49.9259 10.3325 49.5582 11.8671 48.9181 13.1732H43.3856C44.0561 11.9361 44.4584 10.867 44.4584 9.86697C44.4584 8.59534 43.8225 7.76339 42.7801 7.76339C41.305 7.76339 40.1977 9.50057 40.1977 12.2076V20.4927H34.834V3.78037H40.1977V6.52193C41.0023 4.483 42.7109 3.24585 44.9904 3.24585C47.9405 3.24585 49.9173 5.38392 49.9173 8.82811H49.9259Z" fill="black"/>
<path id="Vector_4" d="M66.6876 8.82811C66.6876 10.3325 66.32 11.8671 65.6798 13.1732H60.1474C60.8178 11.9361 61.2201 10.867 61.2201 9.86697C61.2201 8.59534 60.5842 7.76339 59.5418 7.76339C58.0668 7.76339 56.9594 9.50057 56.9594 12.2076V20.4927H51.5957V3.78037H56.9594V6.52193C57.764 4.483 59.4726 3.24585 61.7521 3.24585C64.7022 3.24585 66.679 5.38392 66.679 8.82811H66.6876Z" fill="black"/>
<path id="Vector_5" d="M83.9546 11.0653V20.4884H79.2614V17.6477C78.02 19.8547 75.974 21.0229 73.1926 21.0229C69.4034 21.0229 67.3574 18.8158 67.3574 16.0096C67.3574 12.5999 70.3767 10.5955 75.1694 10.5955C76.3762 10.5955 77.5831 10.7291 78.5909 10.8972C78.5563 9.0264 77.821 7.69011 75.775 7.69011C74.3995 7.69011 73.6295 8.2936 73.7982 9.39281H68.534C67.6602 5.44858 71.3153 3.24585 75.8442 3.24585C81.2079 3.24585 83.959 6.25467 83.959 11.0653H83.9546ZM78.6904 14.4406C77.6826 14.1388 76.5103 14.0397 75.6712 14.0397C73.4262 14.0397 72.6519 14.6733 72.6519 15.6777C72.6519 16.6821 73.3916 17.1131 74.5638 17.1131C76.3416 17.1131 77.8513 16.0786 78.6861 14.4406H78.6904Z" fill="black"/>
</g>
<g id="Group_2">
<path id="Vector_6" d="M41.0708 33.0712V43.1279H35.7071V33.0712C35.7071 31.4677 34.9674 30.3642 33.6957 30.3642C31.9525 30.3642 30.7111 32.1013 30.7111 34.7394V43.1279H25.3474V33.0712C25.3474 31.334 24.6077 30.196 23.2668 30.196C21.5884 30.196 20.2172 31.9677 20.2172 34.8386V43.1236H14.8535V26.4156H20.2172V29.3555C21.1213 27.2174 23.1673 25.8811 25.5161 25.8811C27.8648 25.8811 29.807 27.2519 30.5121 29.321C31.3513 27.2174 33.1593 25.8811 35.7114 25.8811C39.1978 25.8811 41.0751 28.4545 41.0751 33.0669L41.0708 33.0712Z" fill="black"/>
<path id="Vector_7" d="M59.5113 33.7091V43.1322H54.818V40.2915C53.5766 42.4985 51.5306 43.6667 48.7493 43.6667C44.9601 43.6667 42.9141 41.4596 42.9141 38.6534C42.9141 35.2437 45.9333 33.2393 50.726 33.2393C51.9329 33.2393 53.1397 33.3729 54.1476 33.541C54.113 31.6702 53.3776 30.3339 51.3316 30.3339C49.9561 30.3339 49.1861 30.9374 49.3548 32.0366H44.0906C43.2169 28.0924 46.872 25.8896 51.4008 25.8896C56.7646 25.8896 59.5156 28.8985 59.5156 33.7091H59.5113ZM54.2471 37.0843C53.2392 36.7826 52.067 36.6835 51.2278 36.6835C48.9828 36.6835 48.2086 37.3171 48.2086 38.3215C48.2086 39.3259 48.9482 39.7569 50.1205 39.7569C51.8983 39.7569 53.4079 38.7224 54.2427 37.0843H54.2471Z" fill="black"/>
<path id="Vector_8" d="M77.1115 31.4676C77.1115 32.972 76.7438 34.5066 76.1036 35.8127H70.5712C71.2416 34.5756 71.6439 33.5065 71.6439 32.5065C71.6439 31.2348 71.0081 30.4029 69.9656 30.4029C68.4906 30.4029 67.3832 32.1401 67.3832 34.8471V43.1322H62.0195V26.4242H67.3832V29.1657C68.1878 27.1268 69.8964 25.8896 72.176 25.8896C75.126 25.8896 77.1028 28.0277 77.1028 31.4719L77.1115 31.4676Z" fill="black"/>
<path id="Vector_9" d="M96.6588 43.1321H90.3564C90.0882 40.3604 88.6132 38.6879 86.7359 38.1189V34.9463C88.6478 34.9463 89.8546 33.8427 89.8546 32.3728C89.8546 31.1357 88.9809 30.4029 87.6097 30.4029C85.5637 30.4029 83.9589 32.0754 83.9589 34.8471V43.1321H79.2656V19.7427H83.9589V29.3338C84.8326 27.1958 87.0733 25.8939 89.8546 25.8939C93.3756 25.8939 95.387 27.9674 95.387 31.14C95.387 33.6143 94.1456 35.5842 92.0693 36.6533C94.3489 37.8559 95.9926 40.1276 96.6631 43.1365L96.6588 43.1321Z" fill="black"/>
<path id="Vector_10" d="M115.132 37.5844C114.125 41.2613 110.876 43.6667 106.282 43.6667C100.75 43.6667 97.1641 40.1233 97.1641 34.7782C97.1641 29.433 100.819 25.8896 106.252 25.8896C112.524 25.8896 116.309 30.6012 114.367 35.9463H102.8C103.138 37.9853 104.31 39.1535 106.421 39.1535C107.831 39.1535 108.834 38.6189 109.336 37.5844H115.137H115.132ZM102.861 32.9375H109.098C109.267 31.334 108.259 30.2304 106.248 30.2304C104.47 30.2304 103.298 31.1314 102.861 32.9375Z" fill="black"/>
<path id="Vector_11" d="M124.454 30.9331V37.3171C124.454 38.3517 124.856 39.1534 126.401 39.1534C127.409 39.1534 128.044 38.8215 128.948 38.2525V42.8304C128.109 43.3649 126.902 43.6667 125.328 43.6667C119.696 43.6667 119.09 39.7914 119.09 37.3171V30.9331H115.639V26.4242H119.09V23.5059H124.454V26.4242H129.316V30.9331H124.454Z" fill="black"/>
</g>
<path id="Vector_12" d="M116.41 3.24585H129.681C130.408 3.24585 131 3.83209 131 4.56059V13.6431C131 17.6089 127.769 20.8289 123.79 20.8289H123.625C119.646 20.8289 116.414 17.6089 116.414 13.6431V3.24585H116.41Z" fill="black"/>
<path id="Vector_13" d="M101.824 3.24585H116.41V13.6431C116.41 17.6089 113.179 20.8289 109.199 20.8289H109.035C105.055 20.8289 101.824 17.6089 101.824 13.6431V3.24585Z" fill="black"/>
<path id="Vector_14" d="M88.5533 3.24585H101.824V13.6431C101.824 17.6089 98.5929 20.8289 94.6134 20.8289H94.449C90.4695 20.8289 87.2383 17.6089 87.2383 13.6431V4.56059C87.2383 3.83641 87.8266 3.24585 88.5576 3.24585H88.5533Z" fill="black"/>
</g>
<defs>
<clipPath id="clip0_736_6226">
<rect width="131" height="43.6667" fill="white"/>
</clipPath>
</defs>
</svg>
